<svg width="25" height="45" viewBox="0 0 25 45" fill="none" xmlns="http://www.w3.org/2000/svg">
<path d="M17.3418 24.5701C17.0473 23.4845 16.8611 22.3936 16.7509 21.2778C16.6407 20.1619 16.7236 19.0113 17.165 17.9706C17.5474 17.0686 18.1818 16.2849 18.8004 15.5072C20.5273 13.3363 22.1893 11.1198 23.7834 8.86035C24.0166 10.9291 24.2068 13.0168 24.1315 15.0957C24.0755 16.6343 23.9291 18.1957 23.3378 19.6314C22.3525 22.0253 19.9812 23.9216 17.3418 24.5701Z" fill="#E8E6FB"/>
<path d="M16.6899 29.9844C16.193 26.3114 17.7477 22.6739 19.3347 19.5999C19.6056 19.075 19.8836 18.5508 20.1624 18.0262C21.575 15.3648 23.0357 12.6125 23.5452 9.6582L23.7594 9.69086C23.2442 12.676 21.776 15.4421 20.3562 18.1172C20.0777 18.6414 19.8 19.1649 19.5291 19.6891C17.9565 22.736 16.4151 26.3388 16.9045 29.9584L16.6899 29.9844Z" fill="#E8E6FB"/>
<path d="M12.9139 21.7559C12.506 20.2124 11.6161 18.8649 10.9972 17.3849C10.3783 15.905 9.92295 14.2965 10.2283 12.7323C10.4084 11.8107 10.8433 10.9529 11.2742 10.1078C12.9911 6.73852 14.7079 3.36926 16.4248 0C17.2963 1.91777 18.2515 3.77199 18.7735 5.79896C19.2959 7.82592 19.4527 9.97506 18.8815 11.9904C18.433 13.5725 17.5565 15.0135 16.6541 16.413C15.493 18.2128 14.1902 20.0267 12.9139 21.7559Z" fill="#E8E6FB"/>
<path d="M13.3494 29.8417L13.1338 29.8263C13.2848 27.9601 13.1298 26.055 12.9802 24.2127C12.8388 22.4758 12.6928 20.6795 12.8015 18.9109C12.972 16.1442 13.7671 13.4024 14.5356 10.7508C15.5123 7.38151 16.5223 3.89743 16.2238 0.390182L16.4394 0.374023C16.7415 3.91638 15.7265 7.41801 14.7444 10.8045C13.9784 13.4459 13.1869 16.1772 13.0179 18.9225C12.9095 20.677 13.0552 22.4666 13.1955 24.1969C13.3465 26.0473 13.5023 27.9598 13.3494 29.8417Z" fill="#E8E6FB"/>
<path d="M9.76873 23.7143C10.4178 21.1358 10.8161 18.3399 9.71096 15.9024C8.96645 14.2606 7.61018 12.9447 6.28333 11.6694C4.24893 9.71376 2.21452 7.75842 0.179756 5.80273C-0.0889869 8.75031 -0.053829 11.7046 0.268016 14.6476C0.458899 16.3947 0.778954 18.1945 1.81446 19.6555C2.65764 20.845 3.92421 21.7249 5.28765 22.3566C6.6511 22.9879 8.30949 23.3158 9.76873 23.7143Z" fill="#E8E6FB"/>
<path d="M10.3567 29.4294L10.1411 29.414C10.4037 26.1869 9.74531 22.9434 8.23691 20.0341C7.35497 18.334 6.18026 16.7508 5.04393 15.2196C4.67437 14.7218 4.30552 14.2239 3.94492 13.7214C2.57143 11.8068 1.09532 9.50249 0.5625 6.92569L0.774914 6.88672C1.30056 9.42771 2.76303 11.7103 4.12432 13.6077C4.4842 14.1094 4.85305 14.6063 5.22154 15.1034C6.36253 16.6409 7.54227 18.2311 8.43138 19.9449C9.95701 22.8865 10.6229 26.1666 10.3567 29.4294Z" fill="#E8E6FB"/>
<path d="M17.34 44.7091H9.28852C9.28852 44.7091 4.79488 36.4278 7.12171 28.1465H19.5065C19.7232 28.9172 19.8793 29.6837 19.983 30.4463C20.0655 31.001 20.1175 31.5474 20.1433 32.0895C20.5079 38.8705 17.34 44.7091 17.34 44.7091Z" fill="#E8E6FB"/>
<path d="M20.1434 32.0895L10.4062 30.4463H19.983C20.0656 31.001 20.1176 31.5474 20.1434 32.0895Z" fill="#E8E6FB"/>
</svg>
