<svg width="260" height="174" viewBox="0 0 260 174" fill="none" xmlns="http://www.w3.org/2000/svg">
<g clip-path="url(#clip0_145_10695)">
<path d="M28.1144 42.4096C22.0332 42.4096 17.0859 37.4623 17.0859 31.381C17.0859 25.2998 22.0332 20.3525 28.1144 20.3525C34.1957 20.3525 39.143 25.3002 39.143 31.381C39.143 37.4619 34.1957 42.4096 28.1144 42.4096ZM28.1144 21.0459C22.4156 21.0459 17.7793 25.6822 17.7793 31.381C17.7793 37.0799 22.4156 41.7162 28.1144 41.7162C33.8133 41.7162 38.4496 37.0799 38.4496 31.381C38.4496 25.6822 33.8133 21.0459 28.1144 21.0459Z" fill="#E8E6FB"/>
<path d="M28.1141 40.7496C22.9487 40.7496 18.7461 36.547 18.7461 31.3816C18.7461 26.216 22.9487 22.0137 28.1141 22.0137C33.2797 22.0137 37.482 26.2163 37.482 31.3816C37.482 36.547 33.2797 40.7496 28.1141 40.7496ZM28.1141 22.36C23.1397 22.36 19.0928 26.407 19.0928 31.3813C19.0928 36.3556 23.1397 40.4026 28.1141 40.4026C33.0887 40.4026 37.1354 36.3556 37.1354 31.3813C37.1354 26.407 33.0884 22.36 28.1141 22.36Z" fill="#E8E6FB"/>
<path d="M32.9929 35.9488C32.934 35.9488 32.8744 35.9339 32.8196 35.9023L27.3117 32.7147C27.1554 32.6242 27.0947 32.4284 27.1724 32.2654L30.5049 25.2766C30.5877 25.1036 30.795 25.0308 30.967 25.1127C31.14 25.1952 31.2131 25.4021 31.131 25.5748L27.9361 32.2751L33.1669 35.3019C33.3326 35.3979 33.3892 35.6101 33.2935 35.7758C33.229 35.8867 33.1125 35.9488 32.9929 35.9488Z" fill="#E8E6FB"/>
<path d="M12.157 63.8642H29.6675C31.9725 63.8642 33.5602 61.3973 32.4498 59.3777C31.3506 57.3777 28.3332 57.0546 26.7115 59.7059C27.6655 51.8411 15.2964 48.7631 14.8225 59.7059C12.944 55.6465 8.6543 57.6519 9.08486 61.2191C9.26894 62.7455 10.6196 63.8642 12.157 63.8642Z" fill="#E8E6FB"/>
<path d="M176.006 156.085H169.221L164.197 139.253H181.03L176.006 156.085Z" fill="#E8E6FB"/>
<path d="M180.312 141.657H169.68L179.617 143.984L180.312 141.657Z" fill="#E8E6FB"/>
<path d="M169.063 139.255H164.833C161.918 133.633 160.331 127.297 159.984 120.982C162.311 123.635 164.074 126.735 165.491 129.96C166.832 133.015 168.028 136.094 169.063 139.255Z" fill="#E8E6FB"/>
<path d="M173.57 139.255H169.164C167.888 131.07 168.923 122.61 171.692 114.803C173.44 122.806 174.234 131.091 173.57 139.255Z" fill="#E8E6FB"/>
<path d="M182.426 120.771C181.717 127.162 180.08 133.477 177.266 139.255H173.604C174.623 132.417 177.839 125.951 182.426 120.771Z" fill="#E8E6FB"/>
<path d="M186.908 129.829C185.421 133.326 183.271 136.536 180.613 139.254H177.287C179.423 135.245 182.884 131.954 186.908 129.829Z" fill="#E8E6FB"/>
<path d="M181.03 139.378H164.198C164.128 139.378 164.072 139.321 164.072 139.252C164.072 139.183 164.129 139.127 164.198 139.127H181.03C181.099 139.127 181.155 139.183 181.155 139.252C181.155 139.322 181.099 139.378 181.03 139.378Z" fill="#E8E6FB"/>
<path d="M128.487 137.733V135.729H127.501C127.412 135.392 127.279 135.074 127.109 134.779L127.806 134.083L126.391 132.664L125.692 133.362C125.399 133.191 125.081 133.059 124.745 132.969V131.982H122.741V132.969C122.403 133.058 122.084 133.191 121.789 133.363L121.789 133.362L121.09 132.664L119.675 134.083L120.37 134.777L120.373 134.78C120.202 135.075 120.07 135.393 119.98 135.729H118.994V137.733H119.981C120.071 138.069 120.203 138.387 120.374 138.681L119.675 139.379L121.09 140.794L121.789 140.095C122.084 140.267 122.403 140.399 122.741 140.489V141.48H124.745V140.489C125.081 140.399 125.399 140.267 125.693 140.096L125.696 140.1L126.391 140.794L127.805 139.38L127.111 138.685L127.108 138.681C127.278 138.387 127.411 138.07 127.5 137.733H128.487V137.733ZM126.372 136.728C126.372 138.184 125.197 139.36 123.741 139.36C122.29 139.36 121.109 138.184 121.109 136.728C121.109 135.278 122.29 134.097 123.741 134.097C125.197 134.097 126.372 135.278 126.372 136.728Z" fill="#E8E6FB"/>
<path d="M250.547 69.7429V67.5402H249.464C249.366 67.1703 249.22 66.8205 249.033 66.4971L249.799 65.731L248.244 64.1713L247.477 64.9392C247.154 64.7513 246.805 64.606 246.435 64.5076V63.4229H244.233V64.5069C243.862 64.6057 243.511 64.7516 243.187 64.9402L243.186 64.9395L242.418 64.1716L240.864 65.7313L241.627 66.4943L241.631 66.4978C241.443 66.8212 241.297 67.1707 241.199 67.5402H240.115V69.7429H241.2C241.298 70.1121 241.444 70.4616 241.632 70.7843L240.864 71.5522L242.418 73.107L243.186 72.3391C243.511 72.5277 243.862 72.6733 244.233 72.7721V73.8606H246.435V72.7714C246.805 72.673 247.154 72.5277 247.477 72.3402L247.481 72.3443L248.244 73.1073L249.799 71.5525L249.036 70.7895L249.032 70.7854C249.22 70.4623 249.365 70.1128 249.463 69.7433H250.547V69.7429ZM248.223 68.6388C248.223 70.239 246.931 71.5314 245.331 71.5314C243.737 71.5314 242.439 70.2394 242.439 68.6388C242.439 67.0445 243.737 65.7466 245.331 65.7466C246.931 65.7466 248.223 67.0445 248.223 68.6388Z" fill="#00E866"/>
<path d="M20.5739 127.731V125.528H19.4902C19.3921 125.159 19.2469 124.809 19.0593 124.485L19.8255 123.719L18.2707 122.16L17.5028 122.927C17.18 122.74 16.8306 122.594 16.4614 122.496V121.411H14.2587V122.495C13.8881 122.594 13.5373 122.74 13.2131 122.928L13.2124 122.928L12.4446 122.16L10.8898 123.72L11.6528 124.483L11.6566 124.486C11.4687 124.81 11.3235 125.159 11.2253 125.528H10.1406V127.731H11.2253C11.3238 128.1 11.4694 128.45 11.6569 128.773L10.8891 129.54L12.4439 131.095L13.2117 130.327C13.5362 130.516 13.8871 130.662 14.258 130.76V131.849H16.4607V130.76C16.8303 130.661 17.18 130.516 17.5028 130.328L17.5066 130.333L18.2696 131.096L19.8244 129.541L19.0614 128.778L19.0576 128.774C19.2451 128.451 19.3904 128.101 19.4888 127.732H20.5739V127.731ZM18.2495 126.627C18.2495 128.228 16.9575 129.52 15.3569 129.52C13.7626 129.52 12.4647 128.228 12.4647 126.627C12.4647 125.033 13.7626 123.735 15.3569 123.735C16.9575 123.735 18.2495 125.033 18.2495 126.627Z" fill="#E8E6FB"/>
<path d="M148.187 146.436V142.815H146.406C146.245 142.208 146.006 141.633 145.698 141.101L146.957 139.842L144.401 137.278L143.139 138.54C142.608 138.232 142.034 137.993 141.427 137.831V136.048H137.807V137.829C137.197 137.992 136.621 138.232 136.088 138.541L136.087 138.54L134.825 137.278L132.269 139.842L133.524 141.096L133.53 141.102C133.221 141.633 132.982 142.208 132.821 142.815H131.039V146.436H132.822C132.984 147.043 133.223 147.618 133.531 148.148L132.269 149.41L134.825 151.965L136.087 150.704C136.62 151.013 137.197 151.253 137.807 151.415V153.204H141.427V151.414C142.035 151.252 142.609 151.013 143.14 150.705L143.147 150.712L144.401 151.966L146.957 149.41L145.702 148.156L145.696 148.149C146.004 147.618 146.243 147.044 146.405 146.436H148.187V146.436ZM144.367 144.622C144.367 147.252 142.244 149.376 139.613 149.376C136.993 149.376 134.859 147.252 134.859 144.622C134.859 142.002 136.993 139.868 139.613 139.868C142.243 139.868 144.367 142.002 144.367 144.622Z" fill="#E8E6FB"/>
<path d="M239.939 133.413C239.358 133.281 238.805 133.015 238.338 132.643L238.77 132.1C239.155 132.408 239.612 132.628 240.092 132.736L239.939 133.413ZM241.714 133.411L241.56 132.735C242.038 132.626 242.495 132.406 242.881 132.097L243.314 132.639C242.846 133.012 242.294 133.279 241.714 133.411ZM237.228 131.257C236.965 130.715 236.831 130.133 236.83 129.526L237.523 129.525C237.524 130.026 237.635 130.507 237.852 130.955L237.228 131.257ZM244.42 131.251L243.796 130.95C244.012 130.502 244.122 130.02 244.122 129.519L244.815 129.505V129.519C244.815 130.125 244.682 130.708 244.42 131.251ZM237.846 128.094L237.221 127.794C237.478 127.258 237.86 126.777 238.325 126.404L238.759 126.945C238.375 127.254 238.059 127.651 237.846 128.094ZM243.79 128.077C243.575 127.635 243.257 127.24 242.871 126.933L243.301 126.39C243.769 126.76 244.153 127.239 244.414 127.774L243.79 128.077ZM240.079 126.304L239.924 125.628C240.216 125.561 240.517 125.527 240.818 125.527C241.1 125.521 241.412 125.559 241.699 125.624L241.548 126.3C241.311 126.247 241.067 126.22 240.823 126.22C240.821 126.22 240.82 126.22 240.818 126.22C240.569 126.22 240.321 126.248 240.079 126.304Z" fill="#E8E6FB"/>
<path d="M115.292 20.8213C114.712 20.6899 114.158 20.424 113.691 20.052L114.123 19.5095C114.509 19.8166 114.966 20.0364 115.445 20.1449L115.292 20.8213ZM117.067 20.8195L116.913 20.1435C117.392 20.0343 117.848 19.8139 118.234 19.5057L118.667 20.0475C118.2 20.4202 117.647 20.6871 117.067 20.8195ZM112.581 18.6661C112.318 18.1239 112.185 17.5415 112.184 16.9355L112.877 16.9341C112.878 17.435 112.988 17.9162 113.205 18.3638L112.581 18.6661ZM119.774 18.6588L119.149 18.3579C119.365 17.91 119.475 17.4285 119.475 16.9272L120.168 16.9123V16.9272C120.168 17.5338 120.035 18.1162 119.774 18.6588ZM113.199 15.5024L112.574 15.2029C112.831 14.6666 113.213 14.1857 113.678 13.8124L114.112 14.3528C113.728 14.6614 113.412 15.059 113.199 15.5024ZM119.143 15.4847C118.928 15.043 118.61 14.6471 118.223 14.3407L118.654 13.7975C119.121 14.1681 119.506 14.6468 119.766 15.181L119.143 15.4847ZM115.432 13.7125L115.277 13.0369C115.855 12.9034 116.472 12.902 117.051 13.0313L116.9 13.708C116.421 13.6006 115.91 13.6023 115.432 13.7125Z" fill="#E8E6FB"/>
<path d="M249.687 143.702H248.994V147.188H249.687V143.702Z" fill="#E8E6FB"/>
<path d="M251.084 145.098H247.598V145.791H251.084V145.098Z" fill="#E8E6FB"/>
<path d="M53.8574 18.9883H53.1641V22.4744H53.8574V18.9883Z" fill="#E8E6FB"/>
<path d="M55.2537 20.3848H51.7676V21.0781H55.2537V20.3848Z" fill="#E8E6FB"/>
<path d="M207.566 17.2451H206.873V20.7312H207.566V17.2451Z" fill="#E8E6FB"/>
<path d="M208.963 18.6416H205.477V19.3349H208.963V18.6416Z" fill="#E8E6FB"/>
<path d="M20.0742 143.697H19.3809V147.183H20.0742V143.697Z" fill="#E8E6FB"/>
<path d="M21.4705 145.093H17.9844V145.786H21.4705V145.093Z" fill="#E8E6FB"/>
<path d="M249.34 173.248H10.1401C10.0445 173.248 9.9668 173.17 9.9668 173.075C9.9668 172.979 10.0445 172.901 10.1401 172.901H249.34C249.436 172.901 249.513 172.979 249.513 173.075C249.513 173.17 249.436 173.248 249.34 173.248Z" fill="#E8E6FB"/>
<path d="M197.707 128.336H61.7733C59.8587 128.336 58.3066 126.784 58.3066 124.87V33.2255C58.3066 31.3108 59.8587 29.7588 61.7733 29.7588H197.707C199.621 29.7588 201.173 31.3108 201.173 33.2255V124.87C201.174 126.784 199.621 128.336 197.707 128.336Z" fill="white"/>
<path d="M201.175 33.2245V37.1314H58.3066V33.2245C58.3066 31.3109 59.8597 29.7578 61.7733 29.7578H197.708C199.622 29.7578 201.175 31.3109 201.175 33.2245Z" fill="#0B042B"/>
<path d="M67.3349 29.7586H66.2949C66.2949 27.439 68.1822 25.5518 70.5017 25.5518V26.5918C68.7552 26.5918 67.3349 28.0124 67.3349 29.7586Z" fill="#8D8B95"/>
<path d="M70.5005 33.9654C70.2131 33.9654 69.9805 33.7327 69.9805 33.4454C69.9805 33.158 70.2131 32.9254 70.5005 32.9254C72.2466 32.9254 73.6673 31.5047 73.6673 29.7586C73.6673 28.0124 72.2466 26.5918 70.5005 26.5918C70.2131 26.5918 69.9805 26.3591 69.9805 26.0718C69.9805 25.7844 70.2131 25.5518 70.5005 25.5518C72.82 25.5518 74.7073 27.439 74.7073 29.7586C74.7076 32.0781 72.8204 33.9654 70.5005 33.9654Z" fill="#8D8B95"/>
<path d="M79.1826 29.7586H78.1426C78.1426 27.439 80.0298 25.5518 82.3494 25.5518V26.5918C80.6032 26.5918 79.1826 28.0124 79.1826 29.7586Z" fill="#8D8B95"/>
<path d="M82.3501 33.9654C82.0627 33.9654 81.8301 33.7327 81.8301 33.4454C81.8301 33.158 82.0627 32.9254 82.3501 32.9254C84.0962 32.9254 85.5169 31.5047 85.5169 29.7586C85.5169 28.0124 84.0962 26.5918 82.3501 26.5918C82.0627 26.5918 81.8301 26.3591 81.8301 26.0718C81.8301 25.7844 82.0627 25.5518 82.3501 25.5518C84.6696 25.5518 86.5569 27.439 86.5569 29.7586C86.5569 32.0781 84.6696 33.9654 82.3501 33.9654Z" fill="#8D8B95"/>
<path d="M91.0302 29.7586H89.9902C89.9902 27.439 91.8775 25.5518 94.197 25.5518V26.5918C92.4505 26.5918 91.0302 28.0124 91.0302 29.7586Z" fill="#8D8B95"/>
<path d="M94.1977 33.9654C93.9103 33.9654 93.6777 33.7327 93.6777 33.4454C93.6777 33.158 93.9103 32.9254 94.1977 32.9254C95.9439 32.9254 97.3645 31.5047 97.3645 29.7586C97.3645 28.0124 95.9439 26.5918 94.1977 26.5918C93.9103 26.5918 93.6777 26.3591 93.6777 26.0718C93.6777 25.7844 93.9103 25.5518 94.1977 25.5518C96.5173 25.5518 98.4045 27.439 98.4045 29.7586C98.4049 32.0781 96.5176 33.9654 94.1977 33.9654Z" fill="#8D8B95"/>
<path d="M102.878 29.7586H101.838C101.838 27.439 103.725 25.5518 106.045 25.5518V26.5918C104.299 26.5918 102.878 28.0124 102.878 29.7586Z" fill="#8D8B95"/>
<path d="M106.045 33.9654C105.758 33.9654 105.525 33.7327 105.525 33.4454C105.525 33.158 105.758 32.9254 106.045 32.9254C107.792 32.9254 109.212 31.5047 109.212 29.7586C109.212 28.0124 107.792 26.5918 106.045 26.5918C105.758 26.5918 105.525 26.3591 105.525 26.0718C105.525 25.7844 105.758 25.5518 106.045 25.5518C108.365 25.5518 110.252 27.439 110.252 29.7586C110.252 32.0781 108.365 33.9654 106.045 33.9654Z" fill="#8D8B95"/>
<path d="M114.726 29.7586H113.686C113.686 27.439 115.573 25.5518 117.892 25.5518V26.5918C116.146 26.5918 114.726 28.0124 114.726 29.7586Z" fill="#8D8B95"/>
<path d="M117.893 33.9654C117.606 33.9654 117.373 33.7327 117.373 33.4454C117.373 33.158 117.606 32.9254 117.893 32.9254C119.639 32.9254 121.06 31.5047 121.06 29.7586C121.06 28.0124 119.639 26.5918 117.893 26.5918C117.606 26.5918 117.373 26.3591 117.373 26.0718C117.373 25.7844 117.606 25.5518 117.893 25.5518C120.213 25.5518 122.1 27.439 122.1 29.7586C122.1 32.0781 120.213 33.9654 117.893 33.9654Z" fill="#8D8B95"/>
<path d="M126.573 29.7586H125.533C125.533 27.439 127.42 25.5518 129.74 25.5518V26.5918C127.994 26.5918 126.573 28.0124 126.573 29.7586Z" fill="#8D8B95"/>
<path d="M129.741 33.9654C129.453 33.9654 129.221 33.7327 129.221 33.4454C129.221 33.158 129.453 32.9254 129.741 32.9254C131.487 32.9254 132.908 31.5047 132.908 29.7586C132.908 28.0124 131.487 26.5918 129.741 26.5918C129.453 26.5918 129.221 26.3591 129.221 26.0718C129.221 25.7844 129.453 25.5518 129.741 25.5518C132.06 25.5518 133.948 27.439 133.948 29.7586C133.948 32.0781 132.06 33.9654 129.741 33.9654Z" fill="#8D8B95"/>
<path d="M138.421 29.7586H137.381C137.381 27.439 139.268 25.5518 141.588 25.5518V26.5918C139.841 26.5918 138.421 28.0124 138.421 29.7586Z" fill="#8D8B95"/>
<path d="M141.588 33.9654C141.301 33.9654 141.068 33.7327 141.068 33.4454C141.068 33.158 141.301 32.9254 141.588 32.9254C143.335 32.9254 144.755 31.5047 144.755 29.7586C144.755 28.0124 143.335 26.5918 141.588 26.5918C141.301 26.5918 141.068 26.3591 141.068 26.0718C141.068 25.7844 141.301 25.5518 141.588 25.5518C143.908 25.5518 145.795 27.439 145.795 29.7586C145.795 32.0781 143.908 33.9654 141.588 33.9654Z" fill="#8D8B95"/>
<path d="M150.27 29.7586H149.23C149.23 27.439 151.117 25.5518 153.437 25.5518V26.5918C151.691 26.5918 150.27 28.0124 150.27 29.7586Z" fill="#8D8B95"/>
<path d="M153.438 33.9654C153.151 33.9654 152.918 33.7327 152.918 33.4454C152.918 33.158 153.151 32.9254 153.438 32.9254C155.184 32.9254 156.605 31.5047 156.605 29.7586C156.605 28.0124 155.184 26.5918 153.438 26.5918C153.151 26.5918 152.918 26.3591 152.918 26.0718C152.918 25.7844 153.151 25.5518 153.438 25.5518C155.758 25.5518 157.645 27.439 157.645 29.7586C157.645 32.0781 155.758 33.9654 153.438 33.9654Z" fill="#8D8B95"/>
<path d="M162.116 29.7586H161.076C161.076 27.439 162.963 25.5518 165.283 25.5518V26.5918C163.537 26.5918 162.116 28.0124 162.116 29.7586Z" fill="#8D8B95"/>
<path d="M165.284 33.9654C164.997 33.9654 164.764 33.7327 164.764 33.4454C164.764 33.158 164.997 32.9254 165.284 32.9254C167.03 32.9254 168.45 31.5047 168.45 29.7586C168.45 28.0124 167.03 26.5918 165.284 26.5918C164.997 26.5918 164.764 26.3591 164.764 26.0718C164.764 25.7844 164.997 25.5518 165.284 25.5518C167.603 25.5518 169.49 27.439 169.49 29.7586C169.49 32.0781 167.603 33.9654 165.284 33.9654Z" fill="#8D8B95"/>
<path d="M173.966 29.7586H172.926C172.926 27.439 174.813 25.5518 177.133 25.5518V26.5918C175.386 26.5918 173.966 28.0124 173.966 29.7586Z" fill="#8D8B95"/>
<path d="M177.133 33.9654C176.846 33.9654 176.613 33.7327 176.613 33.4454C176.613 33.158 176.846 32.9254 177.133 32.9254C178.879 32.9254 180.3 31.5047 180.3 29.7586C180.3 28.0124 178.879 26.5918 177.133 26.5918C176.846 26.5918 176.613 26.3591 176.613 26.0718C176.613 25.7844 176.846 25.5518 177.133 25.5518C179.453 25.5518 181.34 27.439 181.34 29.7586C181.34 32.0781 179.453 33.9654 177.133 33.9654Z" fill="#8D8B95"/>
<path d="M185.813 29.7586H184.773C184.773 27.439 186.66 25.5518 188.98 25.5518V26.5918C187.234 26.5918 185.813 28.0124 185.813 29.7586Z" fill="#8D8B95"/>
<path d="M188.981 33.9654C188.694 33.9654 188.461 33.7327 188.461 33.4454C188.461 33.158 188.694 32.9254 188.981 32.9254C190.727 32.9254 192.148 31.5047 192.148 29.7586C192.148 28.0124 190.727 26.5918 188.981 26.5918C188.694 26.5918 188.461 26.3591 188.461 26.0718C188.461 25.7844 188.694 25.5518 188.981 25.5518C191.3 25.5518 193.188 27.439 193.188 29.7586C193.187 32.0781 191.3 33.9654 188.981 33.9654Z" fill="#8D8B95"/>
<path d="M123.8 42.4082V60.9913H105.217C105.217 50.7261 113.538 42.4082 123.8 42.4082Z" fill="#00C857"/>
<path d="M142.384 60.9909C142.384 66.1233 140.304 70.7669 136.94 74.1303L123.801 60.9909L136.94 47.8516C140.304 51.2118 142.384 55.8582 142.384 60.9909Z" fill="#FFC73A"/>
<path d="M136.94 47.8519L123.801 60.9913V42.4082C128.933 42.4082 133.58 44.4885 136.94 47.8519Z" fill="#DF413B"/>
<path d="M136.939 74.1306C133.579 77.4939 128.932 79.5743 123.8 79.5743C113.538 79.5743 105.217 71.2532 105.217 60.9912H123.8L136.939 74.1306Z" fill="#7663E4"/>
<path d="M158.187 45.2036C159.818 45.2036 161.312 45.7943 162.46 46.7792L164.352 44.5657C162.695 43.1444 160.541 42.2881 158.187 42.2881C156.406 42.2881 154.74 42.7762 153.314 43.6325L154.809 46.133C155.798 45.5416 156.949 45.2036 158.187 45.2036Z" fill="#DF413B"/>
<path d="M162.726 56.5533C161.548 57.6793 159.947 58.3684 158.188 58.3684C155.687 58.3684 153.512 56.9769 152.395 54.9219L149.83 56.3092C151.44 59.2718 154.578 61.2842 158.188 61.2842C160.731 61.2842 163.034 60.2869 164.734 58.6596L162.726 56.5533Z" fill="#00C857"/>
<path d="M167.684 51.7837C167.684 54.4898 166.554 56.9342 164.734 58.6599L162.726 56.5535C163.985 55.3547 164.769 53.6637 164.769 51.7841C164.769 49.7803 163.874 47.9863 162.461 46.7789L164.353 44.5654C166.391 46.3036 167.684 48.8939 167.684 51.7837Z" fill="#7663E4"/>
<path d="M151.603 51.7834C151.603 52.9222 151.89 53.9885 152.395 54.9217L149.831 56.3091C149.103 54.9647 148.688 53.4234 148.688 51.7837C148.688 48.3202 150.541 45.2889 153.316 43.6318L154.81 46.1323C152.888 47.2836 151.603 49.3816 151.603 51.7834Z" fill="#DF413B"/>
<path d="M184.218 45.0307C185.849 45.0307 187.343 45.6214 188.491 46.6063L190.383 44.3928C188.726 42.9715 186.573 42.1152 184.218 42.1152C182.437 42.1152 180.772 42.6033 179.346 43.4596L180.84 45.9601C181.829 45.3687 182.981 45.0307 184.218 45.0307Z" fill="#00C857"/>
<path d="M188.755 56.3804C187.578 57.5064 185.977 58.1956 184.217 58.1956C181.716 58.1956 179.541 56.8041 178.424 54.749L175.859 56.136C177.469 59.0986 180.608 61.1111 184.217 61.1111C186.76 61.1111 189.064 60.1133 190.763 58.4864L188.755 56.3804Z" fill="#DF413B"/>
<path d="M193.713 51.6109C193.713 54.3166 192.583 56.7613 190.764 58.487L188.756 56.3807C190.015 55.1819 190.798 53.4905 190.798 51.6112C190.798 49.6075 189.903 47.8135 188.49 46.606L190.383 44.3926C192.42 46.1308 193.713 48.7211 193.713 51.6109Z" fill="#FFC73A"/>
<path d="M177.633 51.6109C177.633 52.7497 177.92 53.8156 178.425 54.7492L175.86 56.1362C175.132 54.7919 174.717 53.2506 174.717 51.6109C174.717 48.147 176.571 45.1161 179.345 43.459L180.839 45.9595C178.917 47.1111 177.633 49.2091 177.633 51.6109Z" fill="#FFC73A"/>
<path d="M67.2852 58.0932V120.731H118.609V94.2575C118.753 92.1366 117.872 89.886 116.334 88.4193C114.795 86.9522 112.59 86.2138 110.479 86.4578C108.191 86.7227 106.187 88.0379 104.138 89.089C102.089 90.1401 99.6812 90.9593 97.5176 90.171C94.8549 89.201 93.5452 86.1108 93.4457 83.2786C93.3458 80.4463 94.1393 77.6567 94.2586 74.8251C94.5231 68.5393 91.175 62.2272 85.8228 58.9207C80.4703 55.6145 73.5761 58.0932 67.2852 58.0932Z" fill="#E8E6FB"/>
<path d="M123.404 120.558H64.5586V120.904H123.404V120.558Z" fill="#E8E6FB"/>
<path d="M122.713 121.319L123.301 120.731L122.713 120.144H123.212L123.8 120.731L123.212 121.319H122.713Z" fill="#E8E6FB"/>
<path d="M67.458 50.7021H67.1113V123.822H67.458V50.7021Z" fill="#E8E6FB"/>
<path d="M67.8725 51.3925L67.2849 50.8045L66.6973 51.3925V50.8936L67.2849 50.3057L67.8725 50.8936V51.3925Z" fill="#E8E6FB"/>
<path d="M77.2236 53.3604H76.877V120.769H77.2236V53.3604Z" fill="#E8E6FB"/>
<path d="M87.0166 56.7275H86.6699V120.768H87.0166V56.7275Z" fill="#E8E6FB"/>
<path d="M96.7939 83.4434H96.4473V120.768H96.7939V83.4434Z" fill="#E8E6FB"/>
<path d="M106.573 84.4219H106.227V120.769H106.573V84.4219Z" fill="#E8E6FB"/>
<path d="M116.351 85.6514H116.004V120.769H116.351V85.6514Z" fill="#E8E6FB"/>
<path d="M194.723 100.098H127.5V99.7515H194.376V63.1182H194.723V100.098Z" fill="#E8E6FB"/>
<path d="M193.961 63.8081L194.549 63.2202L195.136 63.8081V63.3093L194.549 62.7217L193.961 63.3093V63.8081Z" fill="#E8E6FB"/>
<path d="M128.19 99.3369L127.602 99.9245L128.19 100.512H127.691L127.104 99.9245L127.691 99.3369H128.19Z" fill="#E8E6FB"/>
<path d="M129.204 93.7388L128.99 93.4663L139.93 84.8603C139.992 84.8111 140.08 84.8104 140.142 84.8586L149.504 91.9507L161.093 72.6358C161.121 72.589 161.169 72.5582 161.224 72.5526C161.277 72.5478 161.331 72.5672 161.369 72.6074L178.6 91.2702L190.668 66.8818L190.979 67.0354L178.799 91.6494C178.773 91.7004 178.724 91.7358 178.668 91.7441C178.612 91.7531 178.554 91.7319 178.516 91.69L161.27 73.0123L149.702 92.2946C149.677 92.3365 149.635 92.366 149.586 92.3754C149.538 92.3847 149.488 92.3729 149.449 92.3435L140.04 85.2157L129.204 93.7388Z" fill="#E8E6FB"/>
<path d="M140.038 86.037C140.612 86.037 141.078 85.5714 141.078 84.997C141.078 84.4227 140.612 83.957 140.038 83.957C139.464 83.957 138.998 84.4227 138.998 84.997C138.998 85.5714 139.464 86.037 140.038 86.037Z" fill="#FFC73A"/>
<path d="M149.554 93.246C150.128 93.246 150.594 92.7804 150.594 92.206C150.594 91.6316 150.128 91.166 149.554 91.166C148.979 91.166 148.514 91.6316 148.514 92.206C148.514 92.7804 148.979 93.246 149.554 93.246Z" fill="#FFC73A"/>
<path d="M161.229 73.7929C161.804 73.7929 162.269 73.3273 162.269 72.7529C162.269 72.1785 161.804 71.7129 161.229 71.7129C160.655 71.7129 160.189 72.1785 160.189 72.7529C160.189 73.3273 160.655 73.7929 161.229 73.7929Z" fill="#FFC73A"/>
<path d="M178.511 92.206C179.085 92.206 179.551 91.7404 179.551 91.166C179.551 90.5916 179.085 90.126 178.511 90.126C177.936 90.126 177.471 90.5916 177.471 91.166C177.471 91.7404 177.936 92.206 178.511 92.206Z" fill="#FFC73A"/>
<path d="M131.758 106.383H127.104V111.037H131.758V106.383Z" fill="#00C857"/>
<path d="M131.758 115.848H127.104V120.502H131.758V115.848Z" fill="#DF413B"/>
<path d="M135.356 109.924H158.008V107.497H135.356V109.924Z" fill="#E8E6FB"/>
<path d="M135.356 119.389H158.008V116.962H135.356V119.389Z" fill="#E8E6FB"/>
<path d="M168.127 106.383H163.473V111.037H168.127V106.383Z" fill="#7663E4"/>
<path d="M168.127 115.848H163.473V120.502H168.127V115.848Z" fill="#FFC73A"/>
<path d="M171.725 109.924H194.377V107.497H171.725V109.924Z" fill="#E8E6FB"/>
<path d="M171.725 119.389H194.377V116.962H171.725V119.389Z" fill="#E8E6FB"/>
<path d="M232.887 164.743H227.923C227.02 166.375 221.605 171.061 220.459 171.721C219.313 172.381 219.661 173.074 219.661 173.074H226.743C227.958 172.45 230.978 170.679 231.498 170.193L232.575 173.074H234.519C234.519 173.074 234.053 165.33 233.755 164.743C233.508 164.256 232.976 164.477 232.887 164.743Z" fill="#0B042B"/>
<path d="M222.49 170.158C225.624 170.973 231.708 167.031 232.887 164.743H227.923C227.302 165.866 224.525 168.449 222.49 170.158Z" fill="#C96742"/>
<path d="M232.888 164.744V159.937L227.689 159.833L227.987 164.744H232.888Z" fill="#C96742"/>
<path d="M218.9 160.803L214.113 162.118C213.675 163.93 209.694 169.884 208.765 170.823C207.835 171.763 208.353 172.34 208.353 172.34L215.182 170.464C216.189 169.54 218.632 167.033 219.005 166.426L220.806 168.919L222.681 168.404C222.681 168.404 220.181 161.06 219.737 160.573C219.37 160.169 218.915 160.523 218.9 160.803Z" fill="#0B042B"/>
<path d="M210.311 168.778C213.548 168.733 218.371 163.321 218.901 160.803L214.114 162.118C213.814 163.365 211.82 166.591 210.311 168.778Z" fill="#C96742"/>
<path d="M218.901 160.803L217.628 156.168L212.588 157.445L214.175 162.101L218.901 160.803Z" fill="#C96742"/>
<path d="M213.35 97.5832C211.925 102.029 207.347 121.238 205.673 128.316C205.263 130.05 205.248 131.849 205.628 133.59C207.071 140.202 210.807 157.212 211.884 161.073L219.844 158.922C219.685 155.221 216.93 136.629 215.209 131.723C217.447 129.055 223.042 116.919 223.988 114.25V96.8066L213.35 97.5832Z" fill="#0B042B"/>
<path d="M228.787 97.583C231.184 102.343 234.634 120.791 231.678 133.444C234.748 140.416 234.649 153.205 234.182 163.139H227.067C225.194 154.273 218.579 116.004 218.659 109.618V97.896L228.787 97.583Z" fill="#0B042B"/>
<path d="M220.213 123.339C220.15 123.339 220.094 123.292 220.085 123.228C219.027 116.047 218.503 111.468 218.526 109.616V97.8956C218.526 97.8239 218.584 97.7656 218.656 97.7656C218.728 97.7656 218.786 97.8239 218.786 97.8956V109.617C218.763 111.457 219.287 116.022 220.342 123.189C220.352 123.261 220.303 123.326 220.232 123.337C220.226 123.338 220.22 123.339 220.213 123.339Z" fill="#8D8B95"/>
<path d="M208.534 131.334C207.356 131.334 206.186 131.083 205.109 130.595C205.044 130.565 205.015 130.489 205.045 130.423C205.075 130.358 205.151 130.329 205.217 130.358C206.481 130.931 207.879 131.166 209.262 131.041C209.339 131.037 209.397 131.088 209.404 131.159C209.41 131.23 209.357 131.293 209.286 131.3C209.036 131.323 208.785 131.334 208.534 131.334Z" fill="#8D8B95"/>
<path d="M222.536 133.444C222.21 133.444 221.884 133.425 221.561 133.389C221.489 133.381 221.438 133.317 221.446 133.245C221.454 133.174 221.522 133.125 221.59 133.131C222.704 133.257 223.86 133.157 224.934 132.843C225.003 132.824 225.075 132.862 225.095 132.931C225.116 133 225.076 133.072 225.007 133.093C224.211 133.325 223.372 133.444 222.536 133.444Z" fill="#8D8B95"/>
<path d="M218.865 158.66C218.798 158.66 218.742 158.609 218.736 158.541C217.938 149.695 216.152 140.568 213.425 131.412C213.413 131.371 213.422 131.327 213.448 131.293C215.685 128.484 217.663 125.445 219.329 122.263C219.362 122.2 219.441 122.175 219.505 122.208C219.568 122.241 219.593 122.32 219.559 122.384C217.897 125.56 215.923 128.594 213.694 131.402C216.414 140.553 218.198 149.676 218.994 158.518C219.001 158.59 218.948 158.653 218.876 158.659C218.873 158.66 218.868 158.66 218.865 158.66Z" fill="#8D8B95"/>
<path d="M233.044 162.455C233.042 162.455 233.04 162.455 233.038 162.455C232.966 162.452 232.911 162.391 232.914 162.319C233.317 153.532 232.881 140.792 230.327 133.804C230.319 133.781 230.317 133.756 230.322 133.732C232.434 123.702 231.957 113.223 228.943 103.426C228.922 103.358 228.961 103.285 229.029 103.264C229.098 103.242 229.17 103.282 229.192 103.35C232.215 113.176 232.696 123.688 230.584 133.749C233.14 140.781 233.578 153.534 233.174 162.331C233.171 162.401 233.113 162.455 233.044 162.455Z" fill="#8D8B95"/>
<path d="M191.096 81.8181L189.517 84.6958C188.432 84.4403 185.732 83.4845 185.732 83.4845L187.498 79.4209C188.511 79.6383 190.344 81.0048 191.096 81.8181Z" fill="#C96742"/>
<path d="M187.498 79.4205C186.754 79.2368 182.848 78.7511 182.709 79.2815C182.569 79.8119 186.363 80.6446 186.936 80.7323L187.498 79.4205Z" fill="#C96742"/>
<path d="M185.906 80.3848C185.458 80.2863 185.033 81.0389 185.4 81.4296C184.833 81.6116 184.863 82.1594 185.173 82.472C184.684 82.6419 184.829 83.2458 185.208 83.4448C185.587 83.6441 187.102 83.8847 187.414 83.9173C187.727 83.9495 187.959 83.407 187.61 83.2191C187.944 83.1928 188.302 82.6457 187.931 82.4727C188.453 82.4083 188.484 81.8394 188.104 81.64C187.725 81.4411 186.383 80.4895 185.906 80.3848Z" fill="#C96742"/>
<path d="M187.442 84.0491C187.429 84.0491 187.415 84.0484 187.402 84.047C187.086 84.0144 185.549 83.771 185.148 83.5603C185.084 83.527 185.06 83.4483 185.093 83.3849C185.127 83.3211 185.206 83.2975 185.269 83.3301C185.617 83.5128 187.097 83.7541 187.428 83.7884C187.531 83.797 187.611 83.6979 187.642 83.5987C187.659 83.5433 187.683 83.4067 187.548 83.3339C187.498 83.3065 187.471 83.249 187.483 83.1928C187.495 83.1363 187.542 83.0943 187.6 83.0898C187.747 83.0784 187.926 82.9033 187.955 82.7435C187.969 82.6686 187.945 82.6232 187.876 82.591C187.824 82.5667 187.794 82.5102 187.803 82.453C187.811 82.3958 187.857 82.3514 187.915 82.3442C188.088 82.323 188.201 82.2332 188.226 82.0987C188.246 81.9861 188.198 81.8366 188.044 81.7559C187.919 81.69 187.698 81.5486 187.442 81.3849C186.91 81.0449 186.181 80.5789 185.878 80.5127C185.808 80.4975 185.764 80.4281 185.779 80.3581C185.794 80.2881 185.863 80.2434 185.934 80.259C186.282 80.3352 187.003 80.7959 187.582 81.1662C187.833 81.3267 188.05 81.4654 188.165 81.526C188.399 81.6491 188.527 81.898 188.482 82.1459C188.45 82.3189 188.34 82.4565 188.179 82.5359C188.216 82.6097 188.228 82.6967 188.211 82.7907C188.176 82.9862 188.028 83.1737 187.851 83.2746C187.919 83.3876 187.935 83.5294 187.89 83.6761C187.831 83.8667 187.661 84.0491 187.442 84.0491Z" fill="#C96742"/>
<path d="M187.609 83.3491C187.597 83.3491 187.584 83.3474 187.571 83.3432L185.135 82.5961C185.066 82.575 185.028 82.5025 185.049 82.4339C185.07 82.3652 185.141 82.3264 185.211 82.3476L187.648 83.0946C187.716 83.1158 187.755 83.1882 187.734 83.2569C187.716 83.3134 187.665 83.3491 187.609 83.3491Z" fill="#C96742"/>
<path d="M187.931 82.6029C187.914 82.6029 187.898 82.5998 187.882 82.5932L185.35 81.5501C185.284 81.5227 185.252 81.4468 185.279 81.3802C185.307 81.314 185.383 81.2824 185.449 81.3095L187.981 82.3526C188.047 82.38 188.079 82.4559 188.051 82.5225C188.03 82.5727 187.982 82.6029 187.931 82.6029Z" fill="#C96742"/>
<path d="M191.096 81.8173C190.868 81.4325 189.161 79.5494 188.647 79.5775C188.132 79.6055 185.748 80.4975 185.78 80.9128C185.811 81.3285 187.394 81.2695 187.73 81.0383C187.939 81.7004 189.179 82.8018 189.959 82.6354L191.096 81.8173Z" fill="#C96742"/>
<path d="M189.799 82.7817C189.019 82.7817 187.968 81.8789 187.66 81.2161C187.229 81.3756 186.295 81.4116 185.888 81.2168C185.702 81.1284 185.656 81.0081 185.649 80.9228C185.606 80.3602 187.935 79.6058 188.268 79.5181C188.339 79.4994 188.409 79.5414 188.427 79.611C188.446 79.6804 188.404 79.7514 188.335 79.7698C187.326 80.035 185.943 80.6829 185.908 80.9062C185.91 80.9259 185.945 80.9561 186 80.9821C186.391 81.169 187.435 81.083 187.656 80.9311C187.69 80.9079 187.733 80.9024 187.772 80.9155C187.81 80.9291 187.841 80.9599 187.853 80.9994C188.049 81.62 189.245 82.6555 189.931 82.5085C190.002 82.4936 190.07 82.5383 190.085 82.6087C190.1 82.6787 190.055 82.7477 189.985 82.7629C189.925 82.7754 189.863 82.7813 189.799 82.7817Z" fill="#C96742"/>
<path d="M211.354 75.0586C209.701 76.4931 204.012 83.9672 203.404 85.4222C201.471 84.3364 190.811 80.7464 190.811 80.7464L188.822 85.4222C191.639 87.0429 200.753 92.2325 203.625 92.4269C206.497 92.6218 213.309 86.6012 213.309 86.6012L214.819 78.3159L211.354 75.0586Z" fill="#00C857"/>
<path d="M205.19 87.0849C205.151 87.0849 205.112 87.0672 205.086 87.0336C204.594 86.3878 203.957 85.84 203.245 85.4486C203.196 85.4212 203.169 85.3654 203.18 85.31C203.191 85.2545 203.236 85.2126 203.292 85.2056C203.837 85.1408 204.395 85.1793 204.822 85.3114C204.891 85.3325 204.929 85.4053 204.908 85.4739C204.887 85.5422 204.814 85.5807 204.746 85.5599C204.457 85.4708 204.102 85.4275 203.73 85.4358C204.328 85.8206 204.863 86.3129 205.292 86.8762C205.336 86.9334 205.325 87.0149 205.268 87.0586C205.245 87.0762 205.217 87.0849 205.19 87.0849Z" fill="#00C857"/>
<path d="M200.808 91.6248C200.777 91.6248 200.746 91.614 200.721 91.5918C200.668 91.544 200.663 91.4618 200.711 91.4081C201.5 90.5213 202.633 89.983 203.819 89.9303C205.009 89.8762 206.181 90.3144 207.046 91.128C207.099 91.1772 207.101 91.2594 207.052 91.3117C207.003 91.3641 206.921 91.3668 206.869 91.3173C206.066 90.5629 204.926 90.1414 203.831 90.1903C202.731 90.2391 201.638 90.7591 200.905 91.5814C200.879 91.6102 200.843 91.6248 200.808 91.6248Z" fill="#00C857"/>
<path d="M231.734 81.1024C231.529 82.8634 229.068 96.0056 228.787 97.5829C228.787 98.1029 225.331 98.5224 221.067 98.5224C216.806 98.5224 213.35 98.1029 213.35 97.5829C213.562 94.8997 213.579 92.1645 213.395 89.4813C212.66 89.412 211.957 89.0618 211.461 88.5176C210.962 87.9733 210.677 87.2418 210.674 86.5034C210.663 84.3368 212.965 82.6173 213.094 80.4541C211 79.3344 210.705 75.5869 211.353 75.0565C212.002 74.5261 218.106 72.609 219.42 72.3213C219.42 72.3213 218.793 76.6789 221.005 76.6789C224.731 76.6789 225.636 72.3213 225.636 72.3213C226.544 72.5501 233.356 74.7896 233.859 75.2333C234.362 75.677 236.306 80.3362 231.734 81.1024Z" fill="white"/>
<path d="M214.306 89.6536C213.967 89.6536 213.629 89.6314 213.293 89.5863C213.221 89.577 213.171 89.5115 213.181 89.4404C213.191 89.3697 213.254 89.3184 213.327 89.3288C214.572 89.4945 215.856 89.3402 217.038 88.8809C217.589 88.667 218.203 88.6465 218.765 88.823C220.068 89.2324 221.223 89.395 222.297 89.3215C223.903 89.2113 225.355 88.5543 226.282 87.5199C226.33 87.4661 226.412 87.462 226.465 87.5098C226.519 87.5577 226.523 87.6398 226.475 87.6932C225.504 88.7779 223.988 89.4661 222.315 89.5808C221.209 89.6567 220.022 89.4903 218.687 89.0712C218.18 88.9121 217.628 88.9301 217.131 89.1232C216.228 89.4744 215.267 89.6536 214.306 89.6536Z" fill="white"/>
<path d="M234.698 107.828C232.199 109.149 224.655 109.811 222.485 109.568C222.246 105.464 222.166 101.8 222.215 98.5133C222.405 85.3018 224.614 78.1119 226.378 72.541C228.406 73.1685 233.429 74.8567 233.859 75.2346C234.362 75.6783 236.307 80.3375 231.734 81.1037C230.888 90.3285 233.117 102.847 234.698 107.828Z" fill="#00C857"/>
<path d="M222.796 89.5302C222.732 89.5302 222.676 89.483 222.667 89.4182C222.657 89.3471 222.707 89.2813 222.778 89.2716C224.204 89.0729 225.448 88.451 226.282 87.5199C226.33 87.4661 226.412 87.462 226.465 87.5098C226.518 87.5577 226.523 87.6398 226.475 87.6932C225.601 88.6701 224.3 89.3222 222.813 89.5291C222.808 89.5298 222.802 89.5302 222.796 89.5302Z" fill="#00C857"/>
<path d="M233.181 108.032C233.126 108.032 233.075 107.997 233.057 107.942C230.311 99.4831 229.422 90.3447 230.485 81.514C230.494 81.4429 230.556 81.3906 230.63 81.4007C230.701 81.409 230.752 81.4738 230.743 81.5452C229.684 90.3384 230.57 99.4384 233.305 107.861C233.327 107.93 233.289 108.003 233.221 108.025C233.208 108.03 233.194 108.032 233.181 108.032Z" fill="#00C857"/>
<path d="M232.455 103.123C232.439 103.123 232.423 103.12 232.407 103.114C229.759 102.072 227.785 99.5788 227.376 96.7622C227.366 96.6911 227.415 96.6252 227.486 96.6148C227.559 96.6037 227.623 96.6537 227.634 96.7247C228.029 99.4502 229.94 101.863 232.502 102.872C232.569 102.898 232.602 102.974 232.576 103.041C232.556 103.092 232.507 103.123 232.455 103.123Z" fill="#00C857"/>
<path d="M223.308 108.168C223.238 108.168 223.18 108.113 223.178 108.042C223.175 107.97 223.232 107.91 223.303 107.908C226.946 107.781 230.597 107.313 234.154 106.516C234.224 106.5 234.293 106.544 234.309 106.614C234.325 106.684 234.281 106.754 234.21 106.77C230.638 107.57 226.971 108.04 223.312 108.167C223.311 108.168 223.309 108.168 223.308 108.168Z" fill="#00C857"/>
<path d="M216.421 109.09C214.271 109.451 209.827 108.491 208.988 107.589C210.368 103.211 213.301 94.097 213.308 89.4725V89.4586L213.266 89.4656C212.576 89.372 211.928 89.0322 211.46 88.5192C210.961 87.9749 210.677 87.2434 210.673 86.505C210.663 84.3384 212.965 82.6189 213.093 80.4557C210.999 79.336 210.704 75.5885 211.353 75.0581C211.914 74.6005 216.566 73.0994 218.657 72.5205C217.416 77.7933 216.202 88.0581 216.081 98.3021C216.036 101.977 216.133 105.651 216.421 109.09Z" fill="#00C857"/>
<path d="M211.46 88.6492C211.425 88.6492 211.39 88.635 211.364 88.6069C210.846 88.0422 210.547 87.2764 210.543 86.5054C210.537 85.3552 211.164 84.3256 211.769 83.3296C212.326 82.4137 212.903 81.4666 212.963 80.4478C212.967 80.3763 213.02 80.3216 213.1 80.3254C213.172 80.3295 213.227 80.3912 213.222 80.4627C213.158 81.5463 212.565 82.5215 211.991 83.4648C211.377 84.4739 210.798 85.4273 210.803 86.504C210.806 87.2109 211.081 87.9132 211.556 88.4311C211.604 88.4838 211.601 88.5663 211.548 88.6149C211.523 88.6378 211.491 88.6492 211.46 88.6492Z" fill="#00C857"/>
<path d="M212.579 82.2999C212.521 82.2999 212.468 82.2611 212.453 82.2025C212.319 81.6853 212.131 81.1795 211.896 80.699C211.865 80.6345 211.891 80.5565 211.956 80.525C212.02 80.4934 212.098 80.5201 212.13 80.5846C212.373 81.0807 212.566 81.6031 212.705 82.1373C212.723 82.207 212.681 82.2777 212.611 82.2957C212.6 82.2985 212.589 82.2999 212.579 82.2999Z" fill="#00C857"/>
<path d="M214.296 89.6527C213.958 89.6527 213.622 89.6308 213.291 89.5865C213.22 89.5771 213.169 89.5116 213.179 89.4405C213.189 89.3698 213.252 89.3185 213.325 89.3289C214.302 89.4589 215.328 89.3892 216.293 89.1258C216.363 89.1067 216.434 89.1479 216.453 89.2169C216.472 89.2863 216.431 89.3577 216.362 89.3764C215.69 89.5598 214.99 89.6527 214.296 89.6527Z" fill="#00C857"/>
<path d="M215.68 108.035C215.677 108.035 215.674 108.035 215.671 108.035C213.634 107.888 211.65 107.679 209.78 106.759C209.715 106.727 209.689 106.65 209.72 106.585C209.753 106.52 209.83 106.495 209.895 106.526C211.723 107.426 213.679 107.63 215.69 107.775C215.761 107.78 215.815 107.842 215.81 107.914C215.805 107.983 215.748 108.035 215.68 108.035Z" fill="#00C857"/>
<path d="M239.849 108.678L243.109 108.236C243.657 110.483 243.926 115.219 243.862 115.677C243.798 116.136 243.361 116.078 243.297 115.689C243.233 115.3 242.879 113.153 242.879 113.153C242.879 113.153 242.834 116.058 242.796 116.462C242.757 116.866 242.331 117.098 242.209 116.501C242.087 115.904 241.958 113.335 241.958 113.335C241.958 113.335 241.859 116.636 241.796 116.928C241.733 117.219 241.32 117.407 241.215 116.875C241.11 116.342 240.971 113.327 240.971 113.327C240.971 113.327 240.697 116.125 240.642 116.431C240.587 116.737 240.179 116.867 240.1 116.246C240.021 115.626 239.745 109.724 239.849 108.678Z" fill="#C96742"/>
<path d="M239.85 108.678C239.342 109.217 238.225 110.892 238.104 111.381C237.983 111.871 238.006 113.847 238.391 113.877C238.776 113.908 239.099 112.977 238.996 112.278C239.577 112.091 240.38 111.637 240.755 110.972C241.131 110.308 239.85 108.678 239.85 108.678Z" fill="#C96742"/>
<path d="M241.505 113.486C241.11 113.486 240.711 113.441 240.331 113.348C240.262 113.33 240.219 113.26 240.236 113.191C240.253 113.121 240.325 113.079 240.393 113.095C241.416 113.346 242.581 113.233 243.363 112.809C243.427 112.774 243.506 112.798 243.54 112.861C243.574 112.924 243.551 113.003 243.488 113.037C242.945 113.331 242.234 113.486 241.505 113.486Z" fill="#C96742"/>
<path d="M233.859 75.2354C238.257 79.9178 241.737 88.3685 242.621 92.2903C243.505 96.2122 244.002 109.619 244.002 109.619H238.368C238.037 107.535 236.49 96.3227 236.711 94.4445C235.44 93.1188 230.595 86.0489 229.98 81.9063C229.365 77.7636 233.859 75.2354 233.859 75.2354Z" fill="#00C857"/>
<path d="M231.678 86.7543C231.63 86.7543 231.584 86.728 231.561 86.6822C230.613 84.7759 230.038 83.175 229.852 81.9249C229.749 81.2285 229.781 80.5317 229.949 79.8536C229.967 79.7843 230.036 79.7416 230.106 79.7586C230.176 79.7759 230.219 79.8463 230.201 79.9163C230.042 80.5611 230.01 81.2243 230.109 81.8868C230.291 83.1098 230.857 84.6844 231.794 86.5665C231.826 86.6309 231.8 86.7089 231.735 86.7408C231.717 86.7498 231.697 86.7543 231.678 86.7543Z" fill="#00C857"/>
<path d="M236.65 94.568C236.61 94.568 236.572 94.5503 236.547 94.5184C236.513 94.4748 236.51 94.4134 236.541 94.3669C236.805 93.9641 237.121 93.5495 237.635 93.2483C237.696 93.2122 237.776 93.2327 237.812 93.2944C237.849 93.3564 237.828 93.4361 237.766 93.4722C237.429 93.6698 237.183 93.9256 236.979 94.194C237.698 93.9797 238.442 93.8771 239.196 93.8861C239.268 93.8872 239.326 93.9461 239.325 94.0178C239.324 94.09 239.277 94.1472 239.193 94.1461C238.34 94.1368 237.497 94.2747 236.693 94.5607C236.679 94.5656 236.664 94.568 236.65 94.568Z" fill="#00C857"/>
<path d="M242.886 95.977C242.87 95.977 242.854 95.9742 242.839 95.968C241.577 95.4691 240.614 94.2832 240.383 92.9471C240.152 91.611 240.662 90.1703 241.682 89.2773C241.736 89.2301 241.819 89.2353 241.865 89.2894C241.913 89.3435 241.907 89.4257 241.853 89.4728C240.9 90.3076 240.423 91.654 240.639 92.9027C240.855 94.1518 241.756 95.2597 242.934 95.7263C243.001 95.7527 243.033 95.8282 243.007 95.8952C242.987 95.9458 242.938 95.977 242.886 95.977Z" fill="#00C857"/>
<path d="M215.552 59.7565C215.353 58.8933 215.237 57.9913 215.411 57.1225C215.585 56.2538 216.085 55.4173 216.868 55.004C217.652 54.5912 218.727 54.699 219.3 55.3746C220.136 54.2951 221.548 53.7422 222.914 53.7727C224.698 53.8125 226.482 54.6518 227.524 56.1012C228.565 57.5507 228.771 59.6012 227.902 61.1598L230.688 70.8516H213.055L215.552 59.7565Z" fill="#0B042B"/>
<path d="M219.275 69.4692C220.156 69.4748 221.007 69.2616 221.759 68.8574C222.509 68.457 223.159 67.8846 223.646 67.1649L224.432 66.0053V59.0453C224.432 57.5928 223.238 56.4238 221.787 56.4557L219.404 56.5105C217.994 56.5406 217.4 57.7928 216.873 59.098C216.234 60.6733 216.748 61.6706 216.695 63.3627C216.69 63.5572 216.676 63.7593 216.654 63.969C216.644 64.0522 216.633 64.1372 216.621 64.2242C216.616 64.2658 216.608 64.3091 216.602 64.3524C216.591 64.4297 216.576 64.5091 216.561 64.5902C216.547 64.6658 216.534 64.7376 216.525 64.8093C216.519 64.8395 216.513 64.8679 216.509 64.8981C216.485 65.07 216.464 65.2344 216.451 65.3949C216.436 65.5477 216.428 65.6989 216.424 65.8424C216.346 68.6289 218.104 69.4637 219.275 69.4692Z" fill="#C96742"/>
<path d="M219.418 72.3205C219.418 72.3205 218.791 76.6781 221.003 76.6781C224.731 76.6781 225.635 72.3205 225.635 72.3205L224.433 66.0049L219.891 68.9027L219.803 69.4442L219.635 70.575L219.418 72.3205Z" fill="#C96742"/>
<path d="M219.635 70.5747C220.493 70.3941 221.3 69.9951 221.978 69.4262C222.645 68.8684 223.175 68.1467 223.509 67.3486C223.044 67.983 222.442 68.4916 221.759 68.8577C221.158 69.1804 220.496 69.3825 219.802 69.4428L219.635 70.5747Z" fill="#0B042B"/>
<path d="M223.35 64.5914C223.35 65.5485 224.125 66.3244 225.083 66.3244C226.04 66.3244 226.816 65.5485 226.816 64.5914C226.816 63.6342 226.04 62.8584 225.083 62.8584C224.126 62.8581 223.35 63.6342 223.35 64.5914Z" fill="#C96742"/>
<path d="M224.091 65.6477C224.088 65.6477 224.085 65.6477 224.083 65.6474C224.011 65.6429 223.957 65.5811 223.961 65.5097C223.993 65.0015 224.251 64.5093 224.651 64.1931C225.05 63.8769 225.588 63.74 226.091 63.826C226.162 63.8381 226.209 63.9054 226.197 63.9761C226.185 64.0465 226.119 64.0926 226.047 64.0822C225.617 64.008 225.154 64.1262 224.812 64.3969C224.469 64.6684 224.248 65.0903 224.22 65.526C224.216 65.5947 224.159 65.6477 224.091 65.6477Z" fill="#C96742"/>
<path d="M225.83 65.4021C225.774 65.4021 225.722 65.3657 225.706 65.3092C225.567 64.8475 225.176 64.4998 224.709 64.4228C224.638 64.411 224.59 64.3441 224.601 64.2734C224.613 64.2027 224.677 64.1538 224.751 64.1659C225.315 64.2588 225.788 64.6779 225.955 65.2343C225.976 65.303 225.936 65.3754 225.868 65.3962C225.855 65.4004 225.842 65.4021 225.83 65.4021Z" fill="#C96742"/>
<path d="M219.574 64.7585C219.556 64.7585 219.538 64.755 219.521 64.7471C219.371 64.6798 219.202 64.6039 219.072 64.4666C218.939 64.3273 218.847 64.0922 218.94 63.8825C218.985 63.7802 219.063 63.7088 219.131 63.6454L219.186 63.593C219.37 63.4086 219.448 63.1548 219.48 62.9742C219.523 62.7329 219.516 62.4761 219.51 62.2278C219.509 62.1561 219.565 62.0965 219.637 62.0947C219.638 62.0947 219.639 62.0947 219.64 62.0947C219.711 62.0947 219.769 62.1509 219.77 62.2216C219.777 62.4826 219.784 62.7527 219.736 63.02C219.68 63.3313 219.554 63.593 219.37 63.7767C219.35 63.7972 219.328 63.817 219.307 63.8364C219.253 63.8866 219.201 63.9345 219.177 63.9875C219.133 64.0874 219.189 64.2132 219.26 64.2877C219.355 64.3876 219.493 64.4496 219.627 64.5096C219.693 64.5391 219.722 64.616 219.693 64.6815C219.672 64.7297 219.624 64.7585 219.574 64.7585Z" fill="#0B042B"/>
<path d="M218.84 60.952C218.85 61.048 218.829 61.1472 218.782 61.2311C218.734 61.315 218.662 61.3812 218.574 61.4224C218.388 61.2987 218.193 61.1711 217.971 61.142C217.768 61.1149 217.56 61.1746 217.381 61.2737C217.201 61.3728 217.034 61.5081 216.884 61.6474C216.827 61.6436 216.777 61.5916 216.775 61.5344C216.948 61.1846 217.29 60.8858 217.68 60.7731C218.07 60.6608 218.496 60.7378 218.84 60.952Z" fill="#0B042B"/>
<path d="M218.658 62.9843C218.607 62.9843 218.558 62.9538 218.537 62.9032C218.432 62.6453 218.214 62.509 217.908 62.509C217.613 62.509 217.36 62.6598 217.23 62.9122C217.197 62.976 217.119 63.0009 217.055 62.9684C216.991 62.9354 216.966 62.8571 216.999 62.7933C217.174 62.4525 217.514 62.249 217.908 62.249C218.323 62.249 218.633 62.4466 218.778 62.8054C218.806 62.872 218.773 62.9479 218.707 62.9749C218.69 62.9815 218.674 62.9843 218.658 62.9843Z" fill="#0B042B"/>
<path d="M220.395 60.952C220.385 61.048 220.406 61.1472 220.454 61.2311C220.501 61.315 220.574 61.3812 220.661 61.4224C220.848 61.2987 221.043 61.1711 221.265 61.142C221.468 61.1149 221.675 61.1746 221.855 61.2737C222.034 61.3728 222.201 61.5081 222.352 61.6474C222.409 61.6436 222.459 61.5916 222.46 61.5344C222.288 61.1846 221.945 60.8858 221.556 60.7731C221.166 60.6608 220.74 60.7378 220.395 60.952Z" fill="#0B042B"/>
<path d="M220.577 62.9843C220.561 62.9843 220.545 62.9812 220.528 62.9749C220.462 62.9479 220.43 62.872 220.457 62.8054C220.603 62.4466 220.912 62.249 221.328 62.249C221.721 62.249 222.061 62.4525 222.237 62.7933C222.269 62.8571 222.244 62.9354 222.18 62.9684C222.115 63.0009 222.038 62.976 222.005 62.9122C221.875 62.6598 221.622 62.509 221.328 62.509C221.021 62.509 220.802 62.6453 220.698 62.9032C220.677 62.9538 220.628 62.9843 220.577 62.9843Z" fill="#0B042B"/>
<path d="M221.002 64.591C221.002 64.7546 221.401 64.887 221.894 64.887C222.386 64.887 222.785 64.7543 222.785 64.591C222.785 64.4274 222.386 64.2949 221.894 64.2949C221.401 64.2946 221.002 64.4274 221.002 64.591Z" fill="#C96742"/>
<path d="M216.525 64.8097C216.684 64.8589 216.894 64.887 217.124 64.887C217.617 64.887 218.016 64.7549 218.016 64.5906C218.016 64.428 217.617 64.2959 217.124 64.2959C216.93 64.2959 216.75 64.3167 216.603 64.3524C216.591 64.4297 216.576 64.5091 216.561 64.5902C216.548 64.6661 216.535 64.7379 216.525 64.8097Z" fill="#C96742"/>
<path d="M218.742 66.6931C218.892 66.8733 219.204 66.9174 219.421 66.9565C219.664 67.0002 219.92 67.0096 220.162 66.9597C220.587 66.872 221.033 66.5867 221.151 66.145C221.214 65.9127 221.161 65.6607 220.966 65.5071C220.791 65.3681 220.546 65.3525 220.339 65.4184C220.11 65.4915 219.931 65.6527 219.753 65.8087C219.708 65.8486 219.66 65.8888 219.611 65.9273C219.436 66.0507 219.172 66.0143 218.975 66.084C218.722 66.1731 218.546 66.4577 218.742 66.6931Z" fill="white"/>
<path d="M225.832 59.1125L225.361 62.8842C225.27 62.8669 225.177 62.8599 225.08 62.8599C224.411 62.8599 223.835 63.2378 223.547 63.789C223.36 63.6296 223.239 63.3799 223.218 63.1303C223.187 62.7421 223.336 62.3607 223.499 62.0037C223.662 61.6501 223.842 61.2895 223.877 60.8978C223.908 60.5095 223.752 60.0727 223.398 59.9029C223.156 59.785 222.868 59.8162 222.598 59.8474C221.984 59.9271 221.363 60.0138 220.746 59.9549C220.133 59.8925 219.509 59.6671 219.093 59.2095C218.677 58.7485 218.517 58.0309 218.819 57.4901C217.748 57.9512 216.836 58.8247 216.344 59.8855L217.113 57.1157L219.173 56.041L223.509 56.2143L225.832 59.1125Z" fill="#0B042B"/>
<path d="M51.1426 163.348L52.4616 169.886H56.2452L56.1207 163.614L51.1426 163.348Z" fill="#C96742"/>
<path d="M65.5928 172.205H50.2285C50.1848 171.742 50.5169 170.484 50.849 170.029C50.8664 169.348 51.0092 167.708 52.0215 167.708C53.0337 167.708 53.4709 169.173 54.4672 169.173C55.4635 169.173 55.6032 167.495 56.7046 167.495C57.8059 167.495 58.4698 168.719 58.4698 168.719L63.3762 170.118C64.4099 170.413 65.236 171.191 65.5928 172.205Z" fill="#0B042B"/>
<path d="M50.1428 173.075H65.6784C65.7692 173.075 65.8427 173.002 65.8427 172.911V172.369C65.8427 172.279 65.7692 172.205 65.6784 172.205H50.1428C50.052 172.205 49.9785 172.279 49.9785 172.369V172.911C49.9785 173.002 50.052 173.075 50.1428 173.075Z" fill="#0B042B"/>
<path d="M32.2324 163.348L32.8692 169.886H36.6528L37.2106 163.614L32.2324 163.348Z" fill="#C96742"/>
<path d="M46.001 172.205H30.6367C30.593 171.742 30.9251 170.484 31.2572 170.029C31.2746 169.348 31.4174 167.708 32.4297 167.708C33.4419 167.708 33.8791 169.173 34.8754 169.173C35.8717 169.173 36.0114 167.495 37.1128 167.495C38.2141 167.495 38.878 168.719 38.878 168.719L43.7844 170.118C44.8181 170.413 45.6442 171.191 46.001 172.205Z" fill="#0B042B"/>
<path d="M30.551 173.075H46.0866C46.1774 173.075 46.2509 173.002 46.2509 172.911V172.369C46.2509 172.279 46.1774 172.205 46.0866 172.205H30.551C30.4602 172.205 30.3867 172.279 30.3867 172.369V172.911C30.3867 173.002 30.4602 173.075 30.551 173.075Z" fill="#0B042B"/>
<path d="M52.7932 103.725C54.1206 108.541 57.3165 156.387 57.3165 164.676H49.9235C48.5961 158.186 43.4953 126.063 42.8789 118.806V104.042L52.7932 103.725Z" fill="#0B042B"/>
<path d="M32.4025 103.585C30.5821 112.612 30.7014 158.723 30.994 164.676H38.9319C40.0822 155.886 44.2921 124.088 44.7376 117.686V103.927L32.4025 103.585Z" fill="#0B042B"/>
<path d="M43.757 126.761C43.7518 126.761 43.7462 126.76 43.741 126.76C43.6696 126.751 43.619 126.686 43.628 126.615C44.1733 122.192 44.503 119.185 44.608 117.678L44.6077 103.928C44.6077 103.856 44.6659 103.798 44.7377 103.798C44.8094 103.798 44.8677 103.856 44.8677 103.928V117.687C44.7619 119.208 44.4319 122.219 43.8859 126.647C43.8779 126.713 43.8218 126.761 43.757 126.761Z" fill="#8D8B95"/>
<path d="M44.7741 113.934H42.2511C42.1793 113.934 42.1211 113.876 42.1211 113.804C42.1211 113.732 42.1793 113.674 42.2511 113.674H44.7741C45.993 113.674 46.9845 112.682 46.9845 111.463V104.043C46.9845 103.971 47.0427 103.913 47.1145 103.913C47.1862 103.913 47.2445 103.971 47.2445 104.043V111.463C47.2445 112.826 46.1362 113.934 44.7741 113.934Z" fill="#8D8B95"/>
<path d="M32.0421 111.624C31.9946 111.624 31.9492 111.598 31.9263 111.553C31.8937 111.489 31.9191 111.41 31.9828 111.378C33.2915 110.71 34.4119 109.638 35.1382 108.362C35.8645 107.084 36.2122 105.574 36.1172 104.107C36.1123 104.035 36.1668 103.974 36.2385 103.969C36.3096 103.963 36.372 104.019 36.3765 104.091C36.4749 105.607 36.1151 107.17 35.3642 108.49C34.613 109.811 33.4544 110.919 32.1011 111.609C32.082 111.619 32.0619 111.624 32.0421 111.624Z" fill="#8D8B95"/>
<path d="M53.5113 110.911C53.4801 110.911 53.4489 110.9 53.4243 110.878C51.5565 109.188 50.4336 106.774 50.3438 104.257C50.3414 104.185 50.3976 104.125 50.4693 104.122C50.5428 104.12 50.6014 104.176 50.6038 104.247C50.6898 106.659 51.8095 109.065 53.5987 110.684C53.6521 110.733 53.6559 110.815 53.608 110.868C53.582 110.897 53.5467 110.911 53.5113 110.911Z" fill="#8D8B95"/>
<path d="M53.596 135.991C52.8375 135.991 52.0797 135.897 51.3441 135.709C51.2744 135.691 51.2325 135.62 51.2501 135.55C51.2682 135.481 51.3413 135.44 51.4082 135.457C52.7987 135.812 54.272 135.823 55.6684 135.486C55.7364 135.467 55.8081 135.511 55.8254 135.581C55.8421 135.651 55.7994 135.721 55.7294 135.738C55.0305 135.907 54.3133 135.991 53.596 135.991Z" fill="#8D8B95"/>
<path d="M40.9043 136.732C39.8816 136.732 38.8593 136.574 37.8852 136.262C37.8169 136.239 37.7791 136.166 37.8013 136.098C37.8231 136.03 37.8963 135.993 37.9649 136.014C39.4129 136.479 40.9719 136.594 42.4726 136.343C42.5444 136.334 42.6102 136.379 42.6224 136.451C42.6342 136.521 42.5863 136.588 42.5153 136.6C41.9831 136.688 41.4437 136.732 40.9043 136.732Z" fill="#8D8B95"/>
<path d="M50.1769 162.108C50.1155 162.108 50.0611 162.064 50.0493 162.002C48.3583 153.057 47.017 143.93 45.7198 135.104C45.284 132.139 44.8479 129.172 44.398 126.203C44.3872 126.131 44.4361 126.065 44.5068 126.054C44.5772 126.044 44.6441 126.092 44.6549 126.163C45.1048 129.133 45.5409 132.1 45.9767 135.066C47.2732 143.889 48.6141 153.014 50.3045 161.954C50.3176 162.024 50.2712 162.092 50.2008 162.105C50.1928 162.107 50.1845 162.108 50.1769 162.108Z" fill="#8D8B95"/>
<path d="M32.2065 161.808C32.1365 161.808 32.0789 161.753 32.0765 161.683C31.5427 145.293 31.7531 128.681 32.7023 112.309C32.7064 112.237 32.7674 112.177 32.8395 112.187C32.9113 112.191 32.9661 112.252 32.9619 112.323C32.0134 128.689 31.803 145.292 32.3365 161.674C32.3386 161.745 32.2824 161.806 32.2107 161.808C32.2089 161.808 32.2076 161.808 32.2065 161.808Z" fill="#8D8B95"/>
<path d="M59.1916 92.346C59.4613 93.6343 59.2173 98.2629 55.5225 98.2629C52.9793 98.2629 48.5538 82.7652 48.7798 81.1144C49.0058 79.4636 53.4019 76.9974 54.7522 78.4648C56.1025 79.9322 58.7992 90.472 59.1916 92.346Z" fill="#C96742"/>
<path d="M63.9844 84.2999L69.1428 83.2627C67.4462 85.6086 60.5812 98.2574 55.7289 98.2574C53.4153 98.2574 53.8968 92.5398 55.5736 91.0662C57.2501 89.5921 62.1263 86.0749 63.9844 84.2999Z" fill="#C96742"/>
<path d="M55.5716 91.1956C55.5356 91.1956 55.4995 91.1807 55.4739 91.1516C55.4264 91.0975 55.4316 91.0153 55.4857 90.9682C56.0625 90.4614 57.2252 89.472 58.5308 88.5419C58.5894 88.4999 58.6708 88.5138 58.7121 88.572C58.754 88.6306 58.7402 88.7117 58.6819 88.7533C57.3857 89.6769 56.2306 90.6597 55.6576 91.1634C55.633 91.1852 55.6021 91.1956 55.5716 91.1956Z" fill="#C96742"/>
<path d="M56.4386 89.3973C56.3738 89.3973 56.318 89.3491 56.3096 89.2832C56.3006 89.2118 56.3512 89.147 56.4226 89.138L58.0138 88.9393C58.0856 88.9313 58.1501 88.9809 58.1588 89.0523C58.1678 89.1237 58.1172 89.1886 58.0457 89.1976L56.4545 89.3962C56.4497 89.3969 56.4441 89.3973 56.4386 89.3973Z" fill="#C96742"/>
<path d="M53.5372 74.7061C54.99 76.0494 58.186 84.8273 58.3343 86.1734C58.0248 87.2866 54.2506 89.5157 52.3966 89.2931L50.0996 77.9848L53.5372 74.7061Z" fill="#4D2EC4"/>
<path d="M51.4436 78.865C53.4789 78.4226 54.4229 75.296 53.5378 74.706C52.6528 74.116 46.4586 72.4641 45.2494 72.3213H39.0319C37.993 72.4346 31.2912 73.762 30.7306 74.6471C30.1701 75.5321 29.085 79.7202 31.4448 80.3397C31.9551 82.5202 30.3479 102.654 31.7436 104.769C33.1393 106.883 52.4691 106.545 53.4418 105.065C54.4149 103.584 52.6601 82.1462 51.4436 78.865Z" fill="#4D2EC4"/>
<path d="M42.3544 75.5669C40.524 75.5669 38.8769 74.5948 38.063 72.9935C38.0304 72.9294 38.056 72.8514 38.1202 72.8188C38.1846 72.7862 38.2623 72.8119 38.2949 72.876C39.32 74.8929 41.3976 75.4344 42.8643 75.2805C44.4368 75.1186 45.6338 74.2065 45.9881 72.9006C46.0072 72.8317 46.0782 72.7907 46.1476 72.8091C46.2169 72.8278 46.2578 72.8993 46.2391 72.9686C45.856 74.3809 44.573 75.3658 42.891 75.5391C42.7111 75.5578 42.5319 75.5669 42.3544 75.5669Z" fill="#4D2EC4"/>
<path d="M32.9538 104.172C32.8935 104.172 32.8394 104.13 32.8266 104.068C31.9214 99.728 32.3138 95.2262 32.6931 90.8727C32.9503 87.9198 33.2162 84.866 33.0779 81.8812C33.0744 81.8095 33.1299 81.7485 33.2017 81.7453C33.2699 81.7412 33.3344 81.7973 33.3375 81.8691C33.4769 84.8716 33.21 87.9337 32.9521 90.8953C32.5742 95.2303 32.1838 99.7127 33.081 104.016C33.0956 104.086 33.0505 104.155 32.9801 104.169C32.9718 104.171 32.9628 104.172 32.9538 104.172Z" fill="#4D2EC4"/>
<path d="M52.8255 87.9435C52.7597 87.9435 52.7035 87.894 52.6966 87.8267C52.2265 83.2514 51.7249 80.0014 51.3206 78.9105C51.2957 78.8432 51.33 78.7683 51.3973 78.7434C51.4649 78.7187 51.5397 78.7527 51.5644 78.82C51.9762 79.9307 52.4827 83.2036 52.9552 87.8C52.9625 87.8714 52.9105 87.9352 52.839 87.9425C52.8345 87.9435 52.83 87.9435 52.8255 87.9435Z" fill="#4D2EC4"/>
<path d="M51.9367 81.0642C51.9211 81.0642 51.9051 81.0614 51.8895 81.0556C51.8226 81.0296 51.7893 80.9543 51.8157 80.8871C52.0868 80.1906 52.3003 79.4661 52.4504 78.7339C52.465 78.6636 52.5329 78.6178 52.6036 78.6327C52.674 78.6473 52.7194 78.7159 52.7049 78.7859C52.552 79.5323 52.3343 80.271 52.058 80.9814C52.0375 81.0327 51.9883 81.0642 51.9367 81.0642Z" fill="#4D2EC4"/>
<path d="M22.5956 93.5722C21.634 94.6382 15.2362 96.2654 16.8382 90.162C17.6036 87.2462 27.4853 77.5787 29.0457 76.9935C30.6057 76.4083 34.8638 79.1061 34.2138 80.9916C33.5638 82.8764 24.382 91.592 22.5956 93.5722Z" fill="#C96742"/>
<path d="M35.5229 78.4566C35.1617 77.549 33.0609 73.2954 31.1795 74.3108C28.4866 75.7641 25.5008 78.3578 22.1523 82.6138C22.6973 84.6564 26.2555 88.1595 28.1147 88.961C30.3264 86.9735 36.461 80.8119 35.5229 78.4566Z" fill="#4D2EC4"/>
<path d="M28.1145 89.0911C28.0788 89.0911 28.0435 89.0765 28.0178 89.0481C27.9696 88.9947 27.9741 88.9125 28.0275 88.8647C29.4045 87.6274 32.6101 84.4038 34.1372 82.2052C34.1781 82.1463 34.2588 82.1317 34.3181 82.1726C34.377 82.2135 34.3916 82.2947 34.3507 82.3536C32.8119 84.5702 29.5861 87.8139 28.2012 89.0581C28.1766 89.08 28.1454 89.0911 28.1145 89.0911Z" fill="#4D2EC4"/>
<path d="M77.4896 78.6158L72.8652 69.1758L17.4047 96.344L22.0291 105.784L77.4896 78.6158Z" fill="#FFC73A"/>
<path d="M19.0885 107.587L14.181 97.5709C14.0153 97.2322 14.155 96.8234 14.4937 96.6574L16.3494 95.7484C16.6881 95.5827 17.0969 95.7224 17.2629 96.0611L22.1703 106.078C22.336 106.416 22.1963 106.825 21.8576 106.991L20.0019 107.9C19.6632 108.066 19.2545 107.926 19.0885 107.587Z" fill="#0B042B"/>
<path d="M18.9468 107.3L14.3219 97.8594L11.8707 99.0602C9.62184 100.162 8.69174 102.878 9.79344 105.127L10.4285 106.423C11.5302 108.672 14.2464 109.602 16.4955 108.501L18.9468 107.3Z" fill="#EF9694"/>
<path d="M77.4917 78.6187L85.9095 68.6416L72.8672 69.1782L77.4917 78.6187Z" fill="#FFE8C6"/>
<path d="M81.7832 68.8115L83.2701 71.8465L85.9096 68.6416L81.7832 68.8115Z" fill="#0B042B"/>
<path d="M72.9796 69.1229L72.7461 69.2373L77.3705 78.6774L77.6039 78.563L72.9796 69.1229Z" fill="#0B042B"/>
<path d="M75.1285 73.8073L19.668 100.976L19.7823 101.209L75.2429 74.0408L75.1285 73.8073Z" fill="#0B042B"/>
<path d="M73.566 70.6198L18.1055 97.7881L18.2198 98.0216L73.6804 70.8533L73.566 70.6198Z" fill="#0B042B"/>
<path d="M76.6718 76.9541L21.2051 104.116L21.3194 104.35L76.7861 77.1876L76.6718 76.9541Z" fill="#0B042B"/>
<path d="M37.0727 94.5391L36.0137 98.1413C38.4546 99.1456 43.7513 100.263 44.2796 100.27C44.8079 100.276 44.818 99.7737 44.3902 99.6351C43.9624 99.496 41.6002 98.7271 41.6002 98.7271C41.6002 98.7271 44.8859 99.1764 45.3484 99.2024C45.8108 99.2284 46.1457 98.7868 45.4929 98.5469C44.8401 98.307 41.9639 97.7197 41.9639 97.7197C41.9639 97.7197 45.7054 98.1749 46.0455 98.1544C46.3856 98.134 46.6688 97.6996 46.0861 97.4895C45.5033 97.2795 42.1254 96.6045 42.1254 96.6045C42.1254 96.6045 45.3286 96.7761 45.6836 96.7667C46.0382 96.7574 46.2549 96.3188 45.5688 96.1233C44.8824 95.9278 38.2712 94.6018 37.0727 94.5391Z" fill="#C96742"/>
<path d="M37.0723 94.5389C37.768 94.0577 39.8494 93.0857 40.4225 93.0333C40.9955 92.981 43.2214 93.3474 43.1895 93.787C43.1577 94.2265 42.0518 94.4314 41.2808 94.1947C40.9702 94.818 40.3198 95.6454 39.5055 95.9554C38.6912 96.2649 37.0723 94.5389 37.0723 94.5389Z" fill="#C96742"/>
<path d="M41.2469 99.4333C41.2195 99.4333 41.1921 99.4249 41.1686 99.4069C41.1114 99.3636 41.1003 99.2821 41.1436 99.2249C41.76 98.412 42.089 97.1109 41.9819 95.9104C41.9753 95.839 42.0283 95.7759 42.0997 95.7693C42.1677 95.7614 42.2342 95.8154 42.2408 95.8872C42.3535 97.1484 42.0044 98.5201 41.3509 99.3819C41.3253 99.4156 41.2864 99.4333 41.2469 99.4333Z" fill="#C96742"/>
<path d="M40.6877 95.2667C40.6763 95.2667 40.6645 95.2653 40.6527 95.2618C39.7278 95.0043 38.7762 94.8025 37.8239 94.6621C37.7528 94.6517 37.7036 94.5855 37.7144 94.5144C37.7248 94.4434 37.7892 94.3938 37.862 94.4049C38.8251 94.547 39.7874 94.7512 40.7227 95.0115C40.7921 95.031 40.8323 95.1024 40.8132 95.1717C40.7969 95.2292 40.7449 95.2667 40.6877 95.2667Z" fill="#C96742"/>
<path d="M37.0728 94.539L36.0137 98.1412C33.1488 97.7232 19.9506 96.2692 17.3779 93.9712C15.3416 92.1522 20.0601 88.7556 22.1425 89.5595C24.2253 90.3638 34.6395 93.714 37.0728 94.539Z" fill="#C96742"/>
<path d="M23.0618 90.9075C23.0077 90.9075 22.9574 90.8735 22.9387 90.8198C22.9155 90.7519 22.9515 90.678 23.0191 90.6544C23.6656 90.4315 24.3742 90.3702 25.0527 90.4735C24.7088 90.1552 24.3094 89.9323 23.8809 89.8214C23.8112 89.8034 23.7696 89.7323 23.7873 89.663C23.8054 89.5933 23.8771 89.552 23.9458 89.5694C24.549 89.7254 25.0967 90.0818 25.5307 90.5997C25.5668 90.643 25.5713 90.7047 25.5411 90.7526C25.511 90.8004 25.4527 90.8226 25.3986 90.8091C24.6498 90.616 23.8348 90.6482 23.104 90.9002C23.0902 90.9054 23.076 90.9075 23.0618 90.9075Z" fill="#C96742"/>
<path d="M64.5586 84.8955C66.1124 85.273 69.6789 83.5716 70.2495 82.7531C70.8201 81.9346 70.0474 79.7565 69.9673 79.363C69.8869 78.9696 69.076 79.0122 69.1017 79.5398C69.1273 80.0675 69.0358 81.0378 69.0358 81.0378C69.0358 81.0378 68.7411 79.4084 68.6122 78.9633C68.4832 78.5182 67.7424 78.6787 67.7538 79.2615C67.7653 79.8442 67.8786 81.8778 67.8786 81.8778C67.8786 81.8778 67.5042 80.1455 67.3281 79.7853C67.152 79.4251 66.4951 79.5183 66.4777 80.1368C66.4604 80.7549 66.7201 82.6283 66.7201 82.6283C66.7201 82.6283 66.2968 81.1574 66.1099 80.7445C65.9231 80.332 65.2904 80.6454 65.341 81.4957C65.3916 82.3461 65.4925 83.9442 65.4925 83.9442C65.1074 84.0642 64.7326 84.3498 64.5586 84.8955Z" fill="#C96742"/>
<path d="M65.0614 85.0788C64.8658 85.0788 64.6863 85.0608 64.5271 85.0223C64.4571 85.0053 64.4145 84.935 64.4315 84.8653C64.4484 84.7952 64.5185 84.7523 64.5885 84.7696C65.6077 85.0168 67.6971 84.2985 69.1284 83.4602C69.1905 83.4238 69.2702 83.445 69.3063 83.5067C69.3427 83.5687 69.3215 83.6481 69.2598 83.6845C68.0104 84.4163 66.2466 85.0788 65.0614 85.0788Z" fill="#C96742"/>
<path d="M66.8087 83.3257C66.7457 83.3257 66.6905 83.28 66.6805 83.2155L66.5758 82.5385C66.5647 82.4674 66.6136 82.4012 66.6843 82.3901C66.7543 82.3797 66.8216 82.4275 66.8327 82.4989L66.9374 83.176C66.9485 83.247 66.8996 83.3133 66.8285 83.3244C66.8223 83.3254 66.8153 83.3257 66.8087 83.3257Z" fill="#C96742"/>
<path d="M68.0037 82.4966C67.9416 82.4966 67.8869 82.4522 67.8758 82.3888L67.7305 81.5585C67.718 81.4878 67.7655 81.4205 67.8362 81.4081C67.9063 81.3963 67.9742 81.4431 67.9867 81.5138L68.1319 82.3441C68.1444 82.4148 68.0969 82.482 68.0262 82.4945C68.0186 82.4959 68.011 82.4966 68.0037 82.4966Z" fill="#C96742"/>
<path d="M69.1535 81.7482C69.0884 81.7482 69.0322 81.6993 69.0246 81.6328L68.9286 80.789C68.9206 80.7176 68.9719 80.6531 69.043 80.6451C69.1154 80.6385 69.1788 80.6881 69.1868 80.7595L69.2828 81.6033C69.2908 81.6747 69.2395 81.7392 69.1684 81.7472C69.1632 81.7479 69.1584 81.7482 69.1535 81.7482Z" fill="#C96742"/>
<path d="M49.0314 59.8181C48.9617 60.917 48.4573 61.9827 47.6513 62.7332C47.5598 61.7106 47.5259 60.7319 47.5962 59.7075C48.0909 59.694 48.5385 59.7772 49.0314 59.8181Z" fill="#0B042B"/>
<path d="M45.3907 69.4702C44.5105 69.4758 43.6587 69.2626 42.9068 68.8583C42.157 68.4579 41.5073 67.8856 41.0199 67.1659L40.2344 66.0063V59.0463C40.2344 57.5938 41.4279 56.4248 42.8787 56.4567L45.2624 56.5115C46.6713 56.5416 47.2665 57.7938 47.7934 59.099C48.432 60.6742 47.9182 61.6716 47.9709 63.3637C47.9765 63.5582 47.99 63.7603 48.0125 63.97C48.0219 64.0532 48.0333 64.1381 48.0448 64.2251C48.0503 64.2667 48.058 64.3101 48.0638 64.3534C48.0753 64.4307 48.0902 64.5101 48.1054 64.5912C48.1186 64.6668 48.1318 64.7386 48.1415 64.8103C48.147 64.8405 48.1529 64.8689 48.1567 64.8991C48.1814 65.071 48.2022 65.2353 48.2153 65.3958C48.2306 65.5487 48.2379 65.6999 48.2417 65.8434C48.3204 68.6299 46.5617 69.4647 45.3907 69.4702Z" fill="#C96742"/>
<path d="M45.2487 72.3214C45.2487 72.3214 44.4195 73.8326 42.2071 73.8326C40.0917 73.8326 39.0312 72.3214 39.0312 72.3214L40.2335 66.0059L44.7755 68.9036L44.8639 69.4451L45.031 70.576L45.2487 72.3214Z" fill="#C96742"/>
<path d="M45.0302 70.5757C44.1719 70.3951 43.3649 69.9961 42.6871 69.4272C42.0201 68.8694 41.4897 68.1476 41.1562 67.3496C41.6211 67.984 42.2226 68.4926 42.9059 68.8586C43.5073 69.1814 44.1688 69.3835 44.8632 69.4438L45.0302 70.5757Z" fill="#0B042B"/>
<path d="M41.3179 64.5924C41.3179 65.5495 40.542 66.3253 39.5849 66.3253C38.6277 66.3253 37.8516 65.5495 37.8516 64.5924C37.8516 63.6352 38.6274 62.8594 39.5849 62.8594C40.542 62.859 41.3179 63.6352 41.3179 64.5924Z" fill="#C96742"/>
<path d="M40.5766 65.649C40.5087 65.649 40.4515 65.596 40.4473 65.5273C40.4196 65.0912 40.1984 64.669 39.8559 64.3979C39.5131 64.1272 39.051 64.0089 38.6207 64.0831C38.55 64.0942 38.4828 64.0478 38.4706 63.9771C38.4585 63.9063 38.506 63.8391 38.5767 63.8269C39.0787 63.741 39.6174 63.8779 40.0171 64.1941C40.4168 64.5102 40.6744 65.0025 40.7066 65.5107C40.7111 65.5825 40.6567 65.6442 40.5853 65.6487C40.5822 65.649 40.5794 65.649 40.5766 65.649Z" fill="#C96742"/>
<path d="M38.8351 65.4035C38.8226 65.4035 38.8102 65.4018 38.7977 65.3979C38.729 65.3771 38.6899 65.3047 38.7107 65.236C38.8774 64.6796 39.3503 64.2605 39.915 64.1676C39.9874 64.1565 40.0526 64.204 40.0644 64.2751C40.0762 64.3458 40.028 64.4127 39.9569 64.4245C39.4896 64.5011 39.0982 64.8492 38.9596 65.3109C38.9426 65.3671 38.8909 65.4035 38.8351 65.4035Z" fill="#C96742"/>
<path d="M45.0912 64.7589C45.0416 64.7589 44.9941 64.7301 44.9726 64.6819C44.9435 64.6164 44.9726 64.5394 45.0381 64.51C45.1723 64.45 45.311 64.3876 45.4049 64.2881C45.476 64.2136 45.5318 64.0877 45.4878 63.9879C45.4645 63.9352 45.4129 63.8877 45.3585 63.8371C45.337 63.8173 45.3155 63.7976 45.295 63.7768C45.1116 63.593 44.9851 63.3313 44.9296 63.02C44.8818 62.7527 44.8887 62.4826 44.8953 62.2213C44.897 62.1495 44.9414 62.0958 45.0288 62.0947C45.1005 62.0965 45.1574 62.1564 45.1553 62.2282C45.1487 62.4764 45.1421 62.7329 45.1855 62.9742C45.2177 63.1545 45.2947 63.4086 45.4791 63.593L45.5349 63.6461C45.6032 63.7092 45.6808 63.7806 45.7256 63.8825C45.8185 64.0922 45.7263 64.3273 45.5938 64.467C45.4645 64.6036 45.2947 64.6798 45.1446 64.7471C45.1272 64.755 45.1092 64.7589 45.0912 64.7589Z" fill="#0B042B"/>
<path d="M45.8246 60.953C45.8149 61.049 45.836 61.1481 45.8835 61.232C45.931 61.3159 46.0035 61.3821 46.0908 61.4234C46.2773 61.2996 46.4721 61.1721 46.6944 61.1429C46.8975 61.1159 47.1052 61.1755 47.2844 61.2747C47.464 61.3738 47.6311 61.509 47.7812 61.6484C47.8384 61.6446 47.8883 61.5926 47.8897 61.5354C47.7174 61.1856 47.3749 60.8868 46.9849 60.7741C46.5952 60.6618 46.1695 60.7387 45.8246 60.953Z" fill="#0B042B"/>
<path d="M46.0069 62.9853C45.9906 62.9853 45.9739 62.9822 45.958 62.9759C45.8914 62.9489 45.8595 62.873 45.8866 62.8064C46.0322 62.4476 46.3414 62.25 46.7574 62.25C47.1512 62.25 47.4909 62.4535 47.6664 62.7943C47.6993 62.8581 47.674 62.9364 47.6102 62.9693C47.5464 63.0026 47.4677 62.977 47.4351 62.9132C47.3055 62.6608 47.0521 62.51 46.7574 62.51C46.4499 62.51 46.2322 62.6462 46.1279 62.9042C46.1067 62.9548 46.0578 62.9853 46.0069 62.9853Z" fill="#0B042B"/>
<path d="M46.4453 62.8346C46.4453 63.0853 46.594 63.2884 46.7771 63.2884C46.9605 63.2884 47.1088 63.0853 47.1088 62.8346C47.1088 62.584 46.9605 62.3809 46.7771 62.3809C46.594 62.3805 46.4453 62.584 46.4453 62.8346Z" fill="#0B042B"/>
<path d="M44.2721 60.953C44.2818 61.049 44.2607 61.1481 44.2132 61.232C44.1657 61.3159 44.0932 61.3821 44.0059 61.4234C43.8194 61.2996 43.6246 61.1721 43.4023 61.1429C43.1992 61.1159 42.9915 61.1755 42.8123 61.2747C42.6327 61.3738 42.4656 61.509 42.3155 61.6484C42.2583 61.6446 42.2084 61.5926 42.207 61.5354C42.3793 61.1856 42.7218 60.8868 43.1115 60.7741C43.5015 60.6618 43.9275 60.7387 44.2721 60.953Z" fill="#0B042B"/>
<path d="M44.0896 62.9853C44.0383 62.9853 43.9894 62.9548 43.969 62.9042C43.8643 62.6462 43.6466 62.51 43.3394 62.51C43.0448 62.51 42.7917 62.6608 42.6617 62.9132C42.6288 62.977 42.5508 63.0026 42.4866 62.9693C42.4228 62.9364 42.3975 62.8581 42.4305 62.7943C42.6055 62.4535 42.9453 62.25 43.3394 62.25C43.7554 62.25 44.0647 62.4476 44.2103 62.8064C44.2373 62.873 44.2051 62.9489 44.1388 62.9759C44.1225 62.9825 44.1059 62.9853 44.0896 62.9853Z" fill="#0B042B"/>
<path d="M42.9883 62.8346C42.9883 63.0853 43.1367 63.2884 43.32 63.2884C43.5034 63.2884 43.6518 63.0853 43.6518 62.8346C43.6518 62.584 43.5031 62.3809 43.32 62.3809C43.1367 62.3805 42.9883 62.584 42.9883 62.8346Z" fill="#0B042B"/>
<path d="M43.6641 64.592C43.6641 64.7556 43.2648 64.888 42.7725 64.888C42.2799 64.888 41.8809 64.7552 41.8809 64.592C41.8809 64.4283 42.2802 64.2959 42.7725 64.2959C43.2648 64.2956 43.6641 64.4283 43.6641 64.592Z" fill="#DF413B"/>
<path d="M48.1407 64.8106C47.9819 64.8599 47.7722 64.8879 47.542 64.8879C47.0491 64.8879 46.6504 64.7559 46.6504 64.5915C46.6504 64.429 47.0491 64.2969 47.542 64.2969C47.7365 64.2969 47.9161 64.3177 48.0634 64.3534C48.0748 64.4307 48.0898 64.5101 48.105 64.5912C48.1182 64.6671 48.1314 64.7389 48.1407 64.8106Z" fill="#DF413B"/>
<path d="M43.5996 66.306C44.6472 65.8501 45.8741 65.8227 46.9411 66.2314C46.6732 66.8669 46.0017 67.3321 45.3125 67.3526C44.6237 67.3734 43.905 66.9241 43.5996 66.306Z" fill="white"/>
<path d="M37.386 59.77C37.5836 60.9556 38.0898 62.0649 38.6514 63.1326C38.9183 62.9593 39.2407 62.8588 39.5839 62.8588C40.2807 62.8588 40.8804 63.2713 41.1578 63.8641C41.3172 63.8225 41.4594 63.6977 41.5426 63.5521C41.657 63.3406 41.6778 63.091 41.6882 62.8484C41.7402 61.7772 41.7055 60.706 41.6674 59.6313C42.2324 59.0385 43.002 58.6225 43.8098 58.4977C44.6175 58.3764 45.4668 58.5289 46.181 58.9276C46.8708 59.3124 47.422 59.9121 48.1223 60.2761C48.8572 60.6609 49.7308 60.7649 50.5351 60.5638C50.9407 60.4633 51.3498 60.2692 51.5716 59.9156C51.8906 59.4094 51.7242 58.7022 51.3116 58.2689C50.8956 57.8356 50.2959 57.6345 49.7031 57.5444C50.1468 57.4022 50.5836 57.1977 50.8332 56.806C51.0794 56.4177 51.0586 55.8284 50.6842 55.5545C50.497 55.4193 50.2612 55.3812 50.029 55.3604C49.2732 55.298 48.5002 55.4158 47.7964 55.7001C48.0148 55.4921 48.2055 55.2321 48.3615 54.9721C48.5175 54.7121 48.6042 54.3966 48.521 54.1054C48.4447 53.8281 48.2263 53.6097 47.9732 53.4814C47.7202 53.3532 47.429 53.3116 47.1447 53.3116C46.4306 53.3081 45.7338 53.5542 45.1167 53.9148C44.4996 54.2753 43.9554 54.7468 43.425 55.2252C43.6642 54.875 43.6642 54.3654 43.4666 53.991C43.2655 53.6132 42.853 53.3636 42.4266 53.3636C42.0868 53.3636 41.761 53.5126 41.4975 53.7276C41.234 53.939 41.026 54.2129 40.8388 54.4972C40.0935 55.6169 39.6151 56.8892 39.1436 58.151C38.9772 57.8182 38.426 57.7073 38.0794 57.839C37.7292 57.9708 37.49 58.307 37.393 58.6641C37.2994 59.0246 37.3271 59.4025 37.386 59.77Z" fill="#0B042B"/>
</g>
<defs>
<clipPath id="clip0_145_10695">
<rect width="260" height="173.333" fill="white"/>
</clipPath>
</defs>
</svg>
